<svg width="40" height="40" viewBox="0 0 40 40" fill="none" xmlns="http://www.w3.org/2000/svg">
<g filter="url(#filter0_d_1076_144407)">
<rect x="4" y="4" width="32" height="32" rx="2" fill="white" fill-opacity="0.6" shape-rendering="crispEdges"/>
</g>
<path d="M22.5301 19.2883L24.1791 16.4902L28.6239 23.413L28.626 24.7416L28.6115 15.5993C28.601 15.3758 28.4823 15.1713 28.293 15.0507L20.2907 10.4478C20.1037 10.3558 19.8662 10.3569 19.6794 10.4507C19.6541 10.4634 19.6304 10.4771 19.6078 10.4922L19.5799 10.5097L11.8124 15.0109L11.7822 15.0247C11.7434 15.0424 11.7043 15.0652 11.6674 15.0914C11.5201 15.197 11.4223 15.3532 11.3907 15.5283C11.386 15.5548 11.3824 15.5819 11.3809 15.6093L11.393 23.0593L15.5331 16.6425C16.0543 15.7916 17.19 15.5174 18.2444 15.5324L19.4816 15.565L12.1911 27.257L13.0505 27.7518L20.4284 15.5769L23.6895 15.565L16.3306 28.0472L19.3972 29.8112L19.7636 30.0217C19.9187 30.0847 20.1013 30.0879 20.2576 30.0314L28.3723 25.3288L26.8209 26.2278L22.5301 19.2883ZM23.1592 28.3499L20.0619 23.4886L21.9527 20.2801L26.0205 26.6917L23.1592 28.3499Z" fill="#2D374B"/>
<path d="M20.0613 23.4887L23.1587 28.35L26.0198 26.6918L21.9521 20.2802L20.0613 23.4887Z" fill="#28A0F0"/>
<path d="M28.6254 24.7417L28.6233 23.4131L24.1785 16.4903L22.5295 19.2885L26.8204 26.228L28.3719 25.3289C28.524 25.2054 28.6161 25.024 28.6258 24.8283L28.6254 24.7417Z" fill="#28A0F0"/>
<path d="M10 25.9946L12.1909 27.2571L19.4815 15.5651L18.2442 15.5325C17.19 15.5176 16.0543 15.7917 15.533 16.6425L11.3928 23.0593L10 25.1994V25.9946Z" fill="white"/>
<path d="M23.6893 15.5651L20.4282 15.5769L13.0503 27.7518L15.6292 29.2365L16.3303 28.0472L23.6893 15.5651Z" fill="white"/>
<path d="M30 15.5482C29.9728 14.8662 29.6035 14.242 29.0251 13.8785L20.918 9.21623C20.3458 8.92815 19.6311 8.92774 19.0578 9.21609C18.9901 9.25022 11.1739 13.7834 11.1739 13.7834C11.0657 13.8352 10.9615 13.897 10.8635 13.9672C10.3472 14.3373 10.0325 14.9124 10 15.5441V25.1995L11.3928 23.0594L11.3807 15.6093C11.3823 15.5821 11.3858 15.5551 11.3905 15.5287C11.422 15.3534 11.52 15.1971 11.6672 15.0914C11.7041 15.0652 19.6538 10.4634 19.679 10.4507C19.866 10.3569 20.1033 10.3558 20.2904 10.4478L28.2927 15.0507C28.482 15.1713 28.6007 15.3758 28.6112 15.5993V24.8281C28.6015 25.0237 28.5241 25.2052 28.372 25.3287L26.8205 26.2277L26.02 26.6917L23.1589 28.3498L20.2573 30.0313C20.101 30.0878 19.9182 30.0846 19.7633 30.0216L16.3303 28.0471L15.629 29.2364L18.7142 31.0127C18.8162 31.0707 18.9071 31.1221 18.9817 31.1641C19.0972 31.2289 19.176 31.2721 19.2038 31.2857C19.423 31.3922 19.7385 31.4541 20.0228 31.4541C20.2834 31.4541 20.5376 31.4063 20.7781 31.3121L29.2061 26.4314C29.6898 26.0565 29.9744 25.4913 30 24.8791V15.5482Z" fill="#96BEDC"/>
<defs>
<filter id="filter0_d_1076_144407" x="0" y="0" width="40" height="40" filterUnits="userSpaceOnUse" color-interpolation-filters="sRGB">
<feFlood flood-opacity="0" result="BackgroundImageFix"/>
<feColorMatrix in="SourceAlpha" type="matrix" values="0 0 0 0 0 0 0 0 0 0 0 0 0 0 0 0 0 0 127 0" result="hardAlpha"/>
<feOffset/>
<feGaussianBlur stdDeviation="2"/>
<feComposite in2="hardAlpha" operator="out"/>
<feColorMatrix type="matrix" values="0 0 0 0 0 0 0 0 0 0 0 0 0 0 0 0 0 0 0.25 0"/>
<feBlend mode="normal" in2="BackgroundImageFix" result="effect1_dropShadow_1076_144407"/>
<feBlend mode="normal" in="SourceGraphic" in2="effect1_dropShadow_1076_144407" result="shape"/>
</filter>
</defs>
</svg>
