<svg width="89" height="88" viewBox="0 0 89 88" fill="none" xmlns="http://www.w3.org/2000/svg">
<g clip-path="url(#clip0_12361_5278)">
<path d="M55.245 1.46401L55.245 1.46415L55.245 1.46401ZM85.0878 54.1487L85.0366 54.3539C79.3785 76.5774 56.8162 90.0763 34.5361 84.521C12.1974 78.9501 -1.40193 56.316 4.17141 33.9721L4.17154 33.9715C9.74003 11.6232 32.3728 -1.97686 54.7139 3.59393L54.714 3.59396C77.0606 9.16481 90.6594 31.8014 85.0878 54.1487Z" fill="white" stroke="#2251F4" stroke-width="4.39027"/>
<path d="M63.9907 37.8021C64.8646 31.959 60.416 28.8181 54.3329 26.7228L56.3063 18.8077L51.4882 17.6071L49.5671 25.3138C48.3005 24.9979 46.9997 24.7002 45.7068 24.4051L47.6418 16.6476L42.8267 15.447L40.8522 23.3595C39.804 23.1209 38.7745 22.885 37.7757 22.6365L37.7813 22.6116L31.1369 20.9524L29.8552 26.0984C29.8552 26.0984 33.4299 26.9178 33.3546 26.9683C35.3057 27.4552 35.6585 28.7468 35.5999 29.7705L33.352 38.7876C33.4863 38.8218 33.6606 38.8711 33.8529 38.9484C33.6922 38.9085 33.5211 38.8649 33.3436 38.8224L30.1928 51.4541C29.9544 52.0469 29.3492 52.9365 27.9851 52.5987C28.0334 52.6686 24.4832 51.7247 24.4832 51.7247L22.0911 57.24L28.3611 58.803C29.5275 59.0955 30.6706 59.4016 31.7962 59.6894L29.8025 67.6952L34.615 68.8958L36.5895 60.9749C37.9042 61.3318 39.1801 61.6611 40.4292 61.9714L38.4614 69.8549L43.2797 71.0555L45.2733 63.0646C53.4892 64.6195 59.667 63.9926 62.2673 56.5613C64.3626 50.5783 62.163 47.1272 57.8406 44.8767C60.9888 44.1507 63.3601 42.0801 63.9924 37.8028L63.9909 37.8017L63.9907 37.8021ZM52.9823 53.2386C51.4933 59.2217 41.4196 55.9874 38.1536 55.1764L40.7994 44.5701C44.0652 45.3854 54.5385 46.9989 52.9825 53.2386H52.9823ZM54.4724 37.7154C53.1141 43.1577 44.7297 40.3928 42.0098 39.7148L44.4086 30.0955C47.1284 30.7734 55.8874 32.0388 54.4728 37.7154H54.4724Z" fill="#2251F4"/>
</g>
<defs>
<clipPath id="clip0_12361_5278">
<rect width="87.8054" height="87.8153" fill="white" transform="translate(0.726562 0.150146)"/>
</clipPath>
</defs>
</svg>
