<svg width="58" height="57" xmlns="http://www.w3.org/2000/svg" xmlns:xlink="http://www.w3.org/1999/xlink" xml:space="preserve" overflow="hidden"><g transform="translate(-882 -108)"><g><g><g><path d="M39.8537 73.2813C34.7252 71.9837 30.7707 69.7594 26.878 65.8049 15.7561 54.7447 15.7561 37.9382 26.8163 26.8163 37.8764 15.7561 54.8683 15.7561 65.8049 26.8163 76.9268 38.0618 76.9268 54.7447 65.8667 65.8667 58.761 72.9106 49.2455 75.6293 39.8537 73.2813ZM43.252 61.4797 43.252 55.0537 40.7187 52.6439C38.6797 50.7285 38.1236 49.8016 37.8764 47.5154 37.1967 41.7691 40.5951 38 46.465 38 49.7398 38 50.2341 38.1854 52.2732 40.2244 56.1659 44.1789 55.7333 50.4813 51.2846 53.4472L49.4309 54.6829 49.4309 61.3561 49.4309 67.9675 51.161 67.5967C57.1545 66.1756 63.6423 60.8 66.2374 55.1772 67.3496 52.8293 67.5967 51.0374 67.6585 46.3415 67.6585 41.0894 67.4732 40.1008 65.9285 37.0732 63.6423 32.6244 59.9967 28.9789 55.7333 26.8163 52.5821 25.2098 51.5935 25.0244 46.3415 25.0244 41.6455 25.0862 39.8537 25.3333 37.5057 26.4455 33.4276 28.2992 28.9789 32.6862 26.8163 36.8878 25.2098 40.1008 25.0244 41.0894 25.0244 46.3415 25.0244 51.5935 25.2098 52.5821 26.7545 55.6098 28.7935 59.5024 30.7707 61.7886 34.2927 64.2602 36.3935 65.7431 41.2748 67.8439 42.8195 67.9675 43.0667 67.9675 43.252 65.0634 43.252 61.4797Z" fill="#000000" fill-rule="nonzero" fill-opacity="1" transform="matrix(1 0 0 -1 865.467 182.842)"/></g></g></g></g></svg>