<?xml version="1.0" standalone="no"?>
<!DOCTYPE svg PUBLIC "-//W3C//DTD SVG 20010904//EN"
 "http://www.w3.org/TR/2001/REC-SVG-20010904/DTD/svg10.dtd">
<svg version="1.0" xmlns="http://www.w3.org/2000/svg"
 width="150.000000pt" height="150.000000pt" viewBox="0 0 150.000000 150.000000"
 preserveAspectRatio="xMidYMid meet">

<g transform="translate(0.000000,150.000000) scale(0.100000,-0.100000)"
fill="#000000" stroke="none">
<path d="M645 1186 c-83 -21 -147 -57 -210 -121 -180 -179 -180 -451 -1 -631
179 -179 454 -179 631 0 180 182 180 452 1 632 -115 114 -269 158 -421 120z
m55 -191 l0 -104 -41 -39 c-33 -31 -42 -46 -46 -83 -11 -93 44 -154 139 -154
53 0 61 3 94 36 63 64 56 166 -16 214 l-30 20 0 108 0 107 28 -6 c97 -23 202
-110 244 -201 18 -38 22 -67 23 -143 0 -85 -3 -101 -28 -150 -37 -72 -96 -131
-165 -166 -51 -26 -67 -29 -152 -29 -76 1 -105 5 -143 23 -66 30 -138 101
-173 169 -26 52 -29 68 -29 153 0 85 3 101 28 150 33 63 65 100 122 140 34 24
113 58 138 60 4 0 7 -47 7 -105z"/>
</g>
</svg>
