<svg width="57" height="57" xmlns="http://www.w3.org/2000/svg" xmlns:xlink="http://www.w3.org/1999/xlink" xml:space="preserve" overflow="hidden"><defs><clipPath id="clip0"><rect x="628" y="348" width="57" height="57"/></clipPath><clipPath id="clip1"><rect x="628" y="348" width="57" height="57"/></clipPath></defs><g clip-path="url(#clip0)" transform="translate(-628 -348)"><g clip-path="url(#clip1)"><path d="M656.5 348C672.24 348 685 360.76 685 376.5 685 392.24 672.24 405 656.5 405 640.76 405 628 392.24 628 376.5 628 360.76 640.76 348 656.5 348Z" fill="#83C7FF" fill-rule="evenodd" fill-opacity="1"/><path d="M656.498 352.835 671.022 376.942 656.498 385.527 641.968 376.942 656.498 352.835ZM656.498 388.28 671.033 379.695 656.498 400.165 641.968 379.695 656.498 388.28Z" fill="#000000" fill-rule="evenodd" fill-opacity="1"/><path d="M660.901 365.749 660.901 359.735 666.649 359.735 666.649 365.749 672.662 365.749 672.662 371.497 666.649 371.497 666.649 377.511 660.901 377.511 660.901 371.497 654.887 371.497 654.887 365.749 660.901 365.749Z" fill="#FFFFFF" fill-rule="evenodd" fill-opacity="1"/></g></g></svg>