<svg width="28" height="28" viewBox="0 0 28 28" fill="none" xmlns="http://www.w3.org/2000/svg">
<g clip-path="url(#clip0_9066_28165)">
<path d="M27.562 13.9998C27.562 6.50939 21.4899 0.437256 13.9995 0.437256C6.50915 0.437256 0.437012 6.50939 0.437012 13.9998C0.437012 21.4901 6.50915 27.5623 13.9995 27.5623C21.4899 27.5623 27.562 21.4901 27.562 13.9998Z" fill="white" stroke="#CED3E6" stroke-width="0.616942"/>
<g clip-path="url(#clip1_9066_28165)">
<path d="M14 24C19.5228 24 24 19.5228 24 14C24 8.47715 19.5228 4 14 4C8.47715 4 4 8.47715 4 14C4 19.5228 8.47715 24 14 24Z" fill="#28D358"/>
<path d="M10.3228 12.6947C10.3228 13.594 11.0514 14.3227 11.9508 14.3227C12.8501 14.3227 13.5788 13.594 13.5788 12.6947C13.5788 11.7953 12.8501 11.0667 11.9508 11.0667C11.0514 11.0667 10.3228 11.7953 10.3228 12.6947ZM14.4261 12.6947C14.4261 13.594 15.1548 14.3227 16.0541 14.3227C16.9534 14.3227 17.6821 13.594 17.6821 12.6947C17.6821 11.7953 16.9534 11.0667 16.0541 11.0667C15.1548 11.0667 14.4261 11.7953 14.4261 12.6947Z" fill="white"/>
<path d="M21.7152 20.3624V14.8138H19.6219C19.1985 17.6124 16.8899 19.6511 13.9999 19.6511C10.8065 19.6511 8.2552 17.1624 8.2552 13.9084C8.2552 10.6544 10.8065 8.1191 14.0005 8.1191C16.7845 8.1191 19.0792 10.0464 19.6232 12.6958H21.7165C21.1439 8.9291 17.8572 6.04443 13.9999 6.04443C9.73787 6.04443 6.2832 9.56577 6.2832 13.9078C6.2832 18.2498 9.73787 21.7711 13.9999 21.7711C16.6819 21.7711 18.5519 20.5291 19.6992 18.5731C19.7265 18.5811 19.7545 18.5871 19.7805 18.5951V22.1604C20.5019 21.6488 21.1524 21.044 21.7152 20.3618V20.3624Z" fill="white"/>
</g>
</g>
<defs>
<clipPath id="clip0_9066_28165">
<rect width="28" height="28" fill="white"/>
</clipPath>
<clipPath id="clip1_9066_28165">
<rect width="20" height="20" fill="white" transform="translate(4 4)"/>
</clipPath>
</defs>
</svg>
