<svg width="56" height="56" xmlns="http://www.w3.org/2000/svg" xmlns:xlink="http://www.w3.org/1999/xlink" xml:space="preserve" overflow="hidden"><g transform="translate(-389 -109)"><g><g><g><g><path d="M445 137.5C445 152.688 432.688 165 417.5 165 402.312 165 390 152.688 390 137.5 390 122.312 402.312 110 417.5 110 432.688 110 445 122.312 445 137.5Z" fill="#FFAF1D" fill-rule="nonzero" fill-opacity="1"/><path d="M418.875 142.648 418.875 144.573C418.875 144.837 419.029 145.101 419.271 145.211L424.716 147.917C424.947 148.027 425.079 148.258 425.079 148.5L425.079 149.182C425.079 149.424 424.947 149.655 424.716 149.765L418.028 153.087C417.687 153.263 417.291 153.263 416.95 153.087L410.262 149.765C410.031 149.655 409.899 149.424 409.899 149.182L409.899 148.5C409.899 148.258 410.031 148.027 410.262 147.917L415.707 145.211C415.949 145.101 416.103 144.837 416.103 144.573L416.103 142.648C416.103 142.406 415.916 142.175 415.663 142.153 414.871 142.054 414.222 141.922 413.738 141.757 412.737 141.438 411.967 140.602 411.692 139.568L407.721 124.597 407.622 124.256C407.622 122.87 412.044 121.759 417.489 121.759 422.934 121.759 427.356 122.87 427.356 124.256L427.257 124.597 423.286 139.568C423.022 140.591 422.252 141.416 421.24 141.757 420.745 141.933 420.107 142.065 419.315 142.153 419.073 142.175 418.875 142.406 418.875 142.648Z" fill="#FFFFFF" fill-rule="nonzero" fill-opacity="1"/></g></g></g></g></g></svg>