<svg width="33" height="29" viewBox="0 0 33 29" fill="none" xmlns="http://www.w3.org/2000/svg">
<path d="M30.3372 18.563C30.4457 18.6492 30.5168 18.7234 30.6237 18.8114C30.6882 18.8648 30.6887 18.8648 30.752 18.8067C30.7962 18.766 30.839 18.7234 30.8844 18.6836C31.0666 18.5211 31.312 18.5291 31.4819 18.7058C31.5495 18.7768 31.6133 18.8517 31.6727 18.9301C31.8197 19.1228 31.805 19.3747 31.6391 19.55C31.5925 19.5992 31.5431 19.6456 31.493 19.6905C31.4509 19.7277 31.4495 19.764 31.4793 19.8108C31.5405 19.9073 31.6001 20.0047 31.6575 20.1035C31.7306 20.2285 31.7956 20.3589 31.8573 20.4902C31.9159 20.6155 31.9159 20.6145 32.0376 20.5743C32.0965 20.553 32.1565 20.5352 32.2175 20.5209C32.4156 20.4809 32.6035 20.5818 32.6881 20.7763C32.7394 20.8962 32.7777 21.0219 32.8025 21.1507C32.8389 21.3344 32.7323 21.5383 32.5619 21.6289C32.4959 21.6636 32.4234 21.6788 32.3543 21.7048C32.2709 21.7364 32.2636 21.7427 32.2773 21.8286C32.3215 22.0993 32.3525 22.3713 32.3543 22.6461C32.3551 22.7063 32.3766 22.7405 32.4361 22.7456C32.4872 22.7501 32.538 22.7602 32.5888 22.7655C32.7919 22.7878 32.9299 22.8943 32.9899 23.1041C32.9951 23.1221 33.0084 23.5004 32.9906 23.603C32.9516 23.8293 32.7843 23.9906 32.5642 23.9998C32.5167 24.0021 32.469 23.9988 32.4222 23.9902C32.3354 23.9736 32.278 24.0119 32.257 24.1002C32.2052 24.3172 32.1357 24.5279 32.0612 24.737C32.0393 24.7974 32.0518 24.8505 32.0998 24.8929C32.1246 24.9151 32.2208 25.0242 32.2364 25.0605C32.2721 25.1439 32.1177 25.0142 32.082 24.9926C32.0005 24.9432 31.0007 24.3617 30.6284 24.1531C30.6549 23.9459 30.7511 23.6807 30.7898 23.4763C30.9872 22.435 30.783 21.4852 30.2117 20.6181C29.7366 19.8968 29.0859 19.4353 28.2867 19.2066C27.5833 19.005 26.8862 19.046 26.2024 19.3091C25.6366 19.5266 25.0171 19.8834 24.6772 20.4453C24.6382 20.4912 24.6197 20.4858 24.5583 20.457C24.3455 20.3453 23.5119 19.7736 23.1729 19.5657C23.0228 19.407 22.9233 19.1471 23.0361 18.9554C23.1167 18.8187 23.2249 18.7077 23.341 18.608C23.5041 18.468 23.7404 18.472 23.9137 18.6035C24.1286 18.7667 24.1283 18.766 24.337 18.5907C24.446 18.4991 24.5623 18.4179 24.6767 18.3341C24.7833 18.2564 24.7911 18.225 24.7412 18.103C24.6051 17.7701 24.6923 17.5173 24.9993 17.3527C25.0804 17.3073 25.1653 17.2693 25.2527 17.2396C25.487 17.1645 25.7028 17.2525 25.8302 17.4723C25.963 17.7017 25.9623 17.7013 26.2124 17.6406C26.3445 17.6086 26.4785 17.5859 26.6121 17.5603C26.7454 17.5346 26.7657 17.5123 26.7733 17.3735C26.7763 17.304 26.7863 17.2349 26.803 17.1677C26.8383 17.0334 26.9021 16.9154 27.0344 16.8625C27.2864 16.7613 27.541 16.7419 27.7885 16.8749C27.9343 16.9533 28.0024 17.0881 28.0043 17.263C28.0071 17.5248 28.0087 17.5271 28.2515 17.5685C28.4113 17.5957 28.5675 17.6364 28.7245 17.6753C28.8436 17.705 28.8743 17.6933 28.9209 17.5725C29.0381 17.2665 29.3303 17.1104 29.6747 17.2885C29.7723 17.3391 29.8749 17.3761 29.9602 17.4576C30.1323 17.6219 30.1443 17.8645 30.0736 18.0414C30.0635 18.0663 30.0514 18.0901 30.0417 18.1152C29.9945 18.2381 29.9895 18.31 29.9895 18.31C29.9895 18.31 30.2306 18.4783 30.3372 18.563Z" fill="#5F5F5F"/>
<path d="M30.5735 24.0527C30.6734 24.1536 32.011 24.924 32.1264 24.9968C32.1607 25.0015 32.1871 25.0254 32.2181 25.0387C32.242 25.0612 32.263 25.0842 32.2848 25.1092C32.3906 25.2654 32.3888 25.4302 32.3275 25.6027C32.2885 25.6942 32.242 25.782 32.1878 25.8644C32.0619 26.0641 31.8295 26.1269 31.6253 26.0185C31.5631 25.9855 31.5029 25.949 31.4438 25.9094C31.401 25.8813 31.3714 25.8888 31.3414 25.9307C31.1776 26.1587 30.9956 26.3715 30.7975 26.5668C30.7576 26.6061 30.7529 26.6403 30.7864 26.6859C30.8252 26.7372 30.8611 26.7911 30.8959 26.8454C31.037 27.0659 30.9989 27.3201 30.7994 27.4835C30.7299 27.5402 30.659 27.5955 30.5853 27.646C30.387 27.7816 30.1546 27.7434 30.0036 27.5514C29.9618 27.4978 29.9227 27.4416 29.8863 27.3836C29.8542 27.3328 29.8221 27.3213 29.7682 27.3536C29.5415 27.4894 29.3021 27.5966 29.0577 27.6917C28.9688 27.7263 28.9697 27.7277 28.987 27.8256C28.9931 27.8595 28.9981 27.8942 29.0042 27.9281C29.0612 28.2149 28.9962 28.3704 28.7579 28.5174C28.6965 28.5534 28.6258 28.5478 28.5599 28.5661C28.4447 28.5951 28.3285 28.5928 28.2112 28.5867C28.1729 28.5668 28.1346 28.5452 28.0973 28.5235C27.9845 28.4247 27.9342 28.2943 27.9049 28.1449C27.8654 27.9424 27.8895 27.9754 27.7125 27.9841C27.478 27.9955 27.2431 27.9946 27.0086 27.9808C26.9176 27.9754 26.9176 27.9752 26.8966 28.0639C26.8869 28.1053 26.8758 28.1463 26.8698 28.1882C26.8318 28.4535 26.6292 28.6525 26.3059 28.5876C26.2269 28.5717 26.1487 28.5502 26.0714 28.526C25.8504 28.4577 25.7225 28.2334 25.767 27.9948C25.7778 27.9344 25.7913 27.874 25.8026 27.8134C25.8178 27.731 25.8168 27.7266 25.7381 27.6957C25.5871 27.6357 25.4365 27.5746 25.2912 27.5009C25.2054 27.4573 25.1203 27.4117 25.0356 27.3656C24.9475 27.3178 24.9482 27.3171 24.8865 27.4042C24.8534 27.4505 24.8227 27.4985 24.7884 27.5432C24.6376 27.7422 24.4001 27.7839 24.1991 27.6449C24.1228 27.5917 24.0481 27.5351 23.9762 27.4751C23.7931 27.322 23.7536 27.0706 23.8796 26.8629C23.9169 26.8011 23.9585 26.7421 24.0006 26.6838C24.0299 26.6433 24.0318 26.6108 23.9942 26.5736C23.7933 26.3755 23.6092 26.1597 23.4435 25.9281C23.412 25.8841 23.3811 25.8843 23.3404 25.9113C23.2908 25.944 23.2393 25.974 23.1877 26.004C22.9563 26.1367 22.7155 26.0712 22.5796 25.8328C22.5311 25.7474 22.4715 25.669 22.4382 25.5732C22.3555 25.3358 22.4252 25.116 22.632 24.9837C22.676 24.9556 22.7211 24.9296 22.7642 24.9015C22.8405 24.8524 22.8426 24.851 22.8088 24.7648C22.7389 24.5864 22.6788 24.4038 22.6287 24.2182C22.6065 24.1369 22.5857 24.0543 22.5675 23.9717C22.5543 23.9113 22.5242 23.8879 22.4654 23.901C22.4184 23.9101 22.3711 23.9166 22.3236 23.9206C22.0437 23.9518 21.8364 23.7752 21.8071 23.4814C21.7991 23.4002 21.7906 23.3199 21.7851 23.2391C21.7778 23.1221 21.813 23.0064 21.8842 22.9163C21.9553 22.8259 22.0565 22.7679 22.1671 22.7538C22.2288 22.7459 22.291 22.7407 22.3524 22.7306C22.4328 22.7168 22.4354 22.715 22.4366 22.6267C22.4401 22.4338 22.4543 22.2411 22.4784 22.0496C22.4886 21.9656 22.5153 21.8836 22.5094 21.7975C22.5034 21.7385 22.4796 21.702 22.4347 21.6835C22.4039 21.6741 22.3966 21.6701 22.3508 21.658C22.2602 21.6348 22.178 21.5936 22.1125 21.5236" fill="#414141"/>
<path d="M22.5133 21.8502C22.5237 21.7909 22.4996 21.7022 22.4419 21.6851C22.3925 21.6706 22.3136 21.6395 22.2644 21.6238C22.0692 21.5617 21.9465 21.3995 21.9252 21.1813C21.9004 21.0886 21.9779 20.7882 22.0132 20.6909C22.0921 20.4764 22.2854 20.3514 22.5031 20.386C22.5502 20.3933 22.5965 20.4059 22.6409 20.4235C22.7232 20.4572 22.7865 20.4308 22.8229 20.3484C22.9125 20.1456 23.0465 19.9447 23.1328 19.7406C23.2165 19.5432 23.1572 19.5596 23.1865 19.5664C23.2579 19.6313 24.2993 20.1648 24.6276 20.4436C24.4139 20.6873 23.9386 21.7907 23.919 22.1599" fill="#414141"/>
<path d="M24.6399 20.4261C25.3048 19.669 25.7806 19.344 26.437 19.1476C26.8362 19.027 27.2532 18.9833 27.6673 19.0182C28.3641 19.0774 28.9933 19.3337 29.5476 19.7867C30.0361 20.1864 30.3921 20.6927 30.6349 21.29C30.7833 21.6552 30.8618 22.037 30.8984 22.4326C30.9509 22.9994 30.8358 23.6325 30.6512 24.1606C30.6138 24.1955 29.9338 23.705 29.861 23.6095C29.8445 23.558 29.865 23.5107 29.8775 23.463C29.9444 23.205 29.9877 22.9428 29.9799 22.6747C29.9432 21.3859 29.1098 20.3228 27.9571 20.0632C27.1064 19.8715 26.2044 20.0651 25.3785 20.9491C25.3577 20.9613 25.3514 20.9348 25.2112 20.833C24.9758 20.6822 24.86 20.5876 24.699 20.4849C24.6068 20.4282 24.6115 20.4589 24.6399 20.4261Z" fill="#414141"/>
<path d="M30.6646 24.1234C30.6424 24.1606 30.6225 24.199 30.6048 24.2388C30.402 24.7536 30.0772 25.1762 29.6815 25.5341C29.1639 26.0028 28.5635 26.295 27.8818 26.3889C27.7147 26.412 27.5474 26.4373 27.3786 26.4317C26.8905 26.4153 26.4187 26.3207 25.9682 26.114C25.6822 25.982 25.4146 25.8099 25.1726 25.6023C24.7958 25.2813 24.4897 24.8955 24.265 24.4383C24.0584 24.0171 23.9395 23.5716 23.8891 23.1022C23.8452 22.6981 23.8797 22.3015 23.96 21.9059C24.0518 21.4548 24.2231 21.039 24.4623 20.6536C24.4964 20.5989 24.5954 20.4743 24.6275 20.4432C24.8015 20.5382 25.2759 20.8683 25.352 20.94C25.4 21.006 25.3114 21.0928 25.2839 21.1352C25.1381 21.3597 25.018 21.5969 24.9407 21.8574C24.6715 22.7648 24.7949 23.6095 25.3373 24.3687C25.7898 25.0022 26.405 25.3494 27.1574 25.429C28.2293 25.5426 29.3293 24.9013 29.782 23.7699C29.807 23.7074 29.8007 23.6088 29.9025 23.6039C29.968 23.683 30.5878 24.0789 30.6646 24.1234Z" fill="#5F5F5F"/>
<path d="M29.9029 23.6039C29.8175 23.8345 29.7221 24.0593 29.5883 24.2646C29.1645 24.9142 28.5861 25.3174 27.8496 25.4564C27.1036 25.5969 26.4207 25.4215 25.8135 24.9489C25.2796 24.5329 24.9387 23.9731 24.8073 23.2879C24.6518 22.4778 24.8151 21.7324 25.2703 21.0589C25.2874 21.0336 25.3034 21.0083 25.3204 20.983C25.3377 20.9613 25.5639 20.6981 25.674 20.601C26.1621 20.1702 26.7204 19.9495 27.3586 19.9368C28.5544 19.9127 29.6329 20.7656 29.944 22.0045C30.0686 22.5003 30.0653 22.9976 29.9298 23.492C29.9197 23.5288 29.9116 23.5667 29.9029 23.6039Z" fill="#ED5050"/>
<path d="M28.1001 22.7194C28.1202 23.1434 27.7508 23.4716 27.4003 23.4672C27.0001 23.4623 26.6718 23.1317 26.6756 22.7122C26.6789 22.3023 26.9831 21.9633 27.4052 21.9621C27.7569 21.9612 28.1195 22.2927 28.1001 22.7194Z" fill="#414141"/>
<path d="M28.1407 21.3096C28.2222 21.3009 28.2901 21.3314 28.3465 21.395C28.3964 21.4513 28.4499 21.5043 28.4987 21.5619C28.6119 21.6952 28.5428 21.9393 28.3964 21.9871C28.3325 22.0082 28.2738 22.0094 28.2174 21.9705C28.0969 21.8872 27.9941 21.7817 27.9027 21.6658C27.8059 21.543 27.8551 21.3854 27.9993 21.3319C28.0446 21.3145 28.0926 21.3068 28.1407 21.3096Z" fill="#ED5050"/>
<path d="M8.94623 28.5438C8.74799 28.4338 8.63035 28.2632 8.59502 28.0286C8.58289 27.9487 8.56197 27.8706 8.54644 27.791C8.53543 27.7352 8.50877 27.7165 8.4536 27.7212C8.10278 27.7523 7.75024 27.7563 7.39888 27.7329C7.3513 27.7298 7.30363 27.727 7.25638 27.7212C7.21133 27.7158 7.18786 27.7355 7.17861 27.7811C7.16188 27.8642 7.1394 27.9462 7.1264 28.03C7.08622 28.2884 6.95184 28.4661 6.72309 28.5661C6.57671 28.608 6.43044 28.5932 6.28418 28.5647C6.1487 28.5382 6.00959 28.5258 5.8868 28.4509C5.83965 28.4144 5.78899 28.3828 5.74813 28.3374C5.60219 28.1749 5.54183 27.9853 5.5795 27.764C5.59371 27.6805 5.61255 27.598 5.62852 27.5147C5.65549 27.3724 5.65528 27.3717 5.52939 27.3248C5.24273 27.2174 4.96311 27.0903 4.69232 26.9442C4.62714 26.9093 4.56105 26.8746 4.49869 26.8348C4.45111 26.8039 4.41951 26.8105 4.38857 26.858C4.34108 26.9311 4.28845 27.0006 4.24132 27.0743C4.04052 27.3885 3.64655 27.4805 3.33684 27.2289C3.25567 27.1628 3.16999 27.1029 3.08858 27.0374C2.80123 26.8061 2.7488 26.4373 2.95818 26.1248C3.01304 26.0429 3.0691 25.9616 3.12637 25.8813C3.15358 25.8434 3.15313 25.8125 3.11867 25.7814C3.10191 25.7664 3.08695 25.7493 3.07097 25.7334C2.80267 25.4646 2.55487 25.1741 2.32984 24.8643C2.26595 24.7763 2.26541 24.7768 2.17157 24.8337C2.10801 24.8721 2.04481 24.9109 1.98125 24.9496C1.64708 25.1509 1.31512 25.0624 1.10861 24.7176C1.08032 24.6735 1.06963 24.6574 1.03999 24.6045C1.00355 24.5298 0.959488 24.46 0.926444 24.383C0.78557 24.0543 0.883709 23.7179 1.17855 23.5323C1.24771 23.4887 1.31798 23.4468 1.38781 23.4035C1.48077 23.3457 1.48176 23.345 1.44179 23.2441C1.31328 22.9196 1.20727 22.586 1.12459 22.2456C1.11093 22.1894 1.09594 22.1337 1.08493 22.077C1.07391 22.0204 1.04264 22.0019 0.990097 22.0089C0.891981 22.022 0.793724 22.0372 0.695041 22.0431C0.441728 22.0585 0.246229 21.9525 0.113935 21.7235C0.0588851 21.6292 0.0381789 21.5236 0.0289134 21.4145C0.0220824 21.3333 0.0068843 21.2605 0.00170788 21.1731C-0.0196596 20.844 0.159222 20.4305 0.552417 20.401C0.636445 20.3947 0.720048 20.3814 0.803863 20.3715C0.900774 20.3601 0.904202 20.3591 0.9064 20.262C0.912711 19.9764 0.934763 19.6912 0.972487 19.4082C0.987898 19.2935 1.00553 19.1792 1.02468 19.0652C1.04309 18.9563 1.04318 18.954 0.9402 18.9184C0.863121 18.892 0.786018 18.8671 0.710121 18.84C0.380366 18.7227 0.210088 18.3919 0.302625 18.04C0.336757 17.9099 0.378712 17.7818 0.423763 17.6554C0.539299 17.3293 0.855628 17.1649 1.17271 17.2635C1.26766 17.293 1.36282 17.3225 1.45512 17.3597C1.51414 17.3829 1.54036 17.3635 1.56525 17.3087C1.62375 17.1797 1.68728 17.0533 1.74886 16.9261C1.77089 16.8824 1.79114 16.8472 1.81109 16.807C1.87716 16.6794 1.94733 16.5537 2.03136 16.4373C2.10702 16.3678 14.8384 24.2552 14.8027 24.346C14.7781 24.3926 14.7585 24.4373 14.7351 24.4823C14.6902 24.5663 14.6476 24.6518 14.5999 24.7339C14.4183 25.0453 14.0876 25.1399 13.779 24.9702C13.698 24.9257 13.6201 24.8742 13.5405 24.8264C13.4577 24.7768 13.4567 24.7763 13.4004 24.8529C13.2748 25.024 13.1433 25.19 13.0061 25.3508C12.8833 25.4943 12.7534 25.6304 12.6213 25.7643C12.5605 25.8258 12.5606 25.8277 12.6074 25.8975C12.6601 25.9764 12.7159 26.0532 12.7682 26.1323C12.9711 26.4397 12.9167 26.8098 12.6348 27.0359C12.5445 27.1085 12.4527 27.179 12.3595 27.2473C12.0666 27.4611 11.7187 27.4028 11.5021 27.1036C11.4471 27.0268 11.3947 26.9472 11.3397 26.87C11.2899 26.8004 11.288 26.7993 11.2151 26.8412C10.9161 27.0137 10.6057 27.1633 10.2863 27.2888C10.2416 27.3063 10.1965 27.3227 10.1521 27.3405C10.0715 27.3728 10.07 27.374 10.086 27.4681C10.1002 27.5517 10.1121 27.6364 10.1349 27.7174C10.2199 28.0208 10.0424 28.3872 9.64817 28.516C9.47777 28.5719 9.10871 28.6124 8.94623 28.5438Z" fill="#414141"/>
<path d="M14.7777 24.3685C14.5104 24.2051 12.1305 22.6604 11.9638 22.5635C11.8734 22.5153 11.9028 22.5094 11.9577 22.401C12.1523 21.963 12.2833 21.4964 12.3463 21.0174C12.3916 20.6684 12.3892 20.3179 12.3619 19.9663C12.3363 19.6353 12.2772 19.3077 12.1857 18.9898C12.069 18.5846 11.9003 18.2056 11.6919 17.8432C11.4594 17.4388 11.1632 17.0938 10.836 16.7756C10.5844 16.531 10.3001 16.3322 9.99982 16.1597C9.54874 15.8984 9.05788 15.7223 8.54929 15.639C8.22989 15.5868 7.9075 15.561 7.58513 15.5833C6.89907 15.6308 6.24959 15.8209 5.64546 16.1707C5.16892 16.4539 4.74237 16.8215 4.3847 17.2576C4.29351 17.3691 4.16365 17.5905 4.07433 17.7029C4.02299 17.7673 3.16898 17.1837 2.00724 16.4596C2.05007 16.3802 2.09138 16.3151 2.13719 16.2458C2.16572 16.2025 2.1634 16.1695 2.12618 16.1353C2.05491 16.0686 1.98388 16.0016 1.91394 15.9335C1.69145 15.716 1.63948 15.4276 1.77879 15.1443C1.81063 15.0795 1.86811 14.9271 1.9558 14.8163C1.99821 14.7627 2.04489 14.7138 2.09072 14.6639C2.31496 14.4195 2.75089 14.4153 2.98494 14.6405C3.26823 14.9128 3.231 14.8496 3.46954 14.6567C3.67343 14.4923 3.87971 14.332 4.09537 14.1845C4.21145 14.1053 4.21894 14.067 4.16023 13.9342C4.09482 13.7862 4.0359 13.6373 4.04854 13.4681C4.06419 13.2593 4.1447 13.0806 4.30673 12.9646C4.53801 12.7991 4.78362 12.6629 5.0787 12.6713C5.32244 12.6785 5.49314 12.8062 5.61695 13.0152C5.66099 13.0904 5.69526 13.1726 5.73093 13.2531C5.76397 13.3285 5.81751 13.3531 5.89251 13.3324C6.20851 13.2452 6.52857 13.1792 6.85071 13.1243C6.96781 13.1044 6.99137 13.0681 6.99589 12.9456C6.99804 12.9031 6.99804 12.8605 6.99589 12.818C6.97088 12.4286 7.25724 12.1017 7.59572 12.0791C7.78228 12.0666 7.9692 12.0517 8.15444 12.0907C8.42683 12.1487 8.69489 12.4115 8.66792 12.7724C8.66416 12.8223 8.66693 12.8728 8.66792 12.9232C8.67033 13.0715 8.69678 13.1078 8.83588 13.1289C9.13729 13.1733 9.4358 13.2375 9.72965 13.321C9.88518 13.3658 9.90929 13.3495 9.97406 13.1964C10.0248 13.0764 10.0757 12.9562 10.1654 12.8599C10.3467 12.6659 10.5723 12.6346 10.8074 12.6893C10.9935 12.7327 11.1684 12.8217 11.3287 12.9317C11.5898 13.1111 11.685 13.4333 11.5787 13.7467C11.5566 13.812 11.53 13.8759 11.5022 13.939C11.4472 14.0627 11.4565 14.1079 11.566 14.181C11.796 14.3329 12.0174 14.4984 12.2293 14.6773C12.4613 14.8746 12.4199 14.9044 12.676 14.6604C12.9002 14.4464 13.2465 14.4209 13.4511 14.5675C13.6583 14.7157 13.8386 14.9025 13.9584 15.1361C14.0648 15.3443 14.0505 15.7268 13.8384 15.9192C13.7748 15.9773 13.7184 16.0438 13.6592 16.1072C13.608 16.1625 13.601 16.2226 13.6416 16.2854C13.8312 16.5797 14.0009 16.8875 14.1494 17.2066C14.1859 17.285 14.2485 17.3049 14.3256 17.2792C14.4163 17.2485 14.509 17.2239 14.6028 17.2061C14.8539 17.1598 15.1302 17.2759 15.259 17.5079C15.384 17.7327 15.4611 17.9794 15.4689 18.2432C15.4774 18.5333 15.3401 18.7339 15.1054 18.8676C15.0274 18.9109 14.9451 18.9451 14.8602 18.9699C14.7704 18.9968 14.7319 19.0544 14.7501 19.1509C14.8134 19.4967 14.8345 19.8471 14.8553 20.1978C14.8607 20.2908 14.9033 20.342 14.9919 20.3446C15.0581 20.3467 15.1231 20.3596 15.1883 20.3687C15.5251 20.4151 15.7554 20.6911 15.7565 21.05C15.7573 21.1195 15.7539 21.1888 15.7473 21.2581C15.7362 21.367 15.6991 21.5234 15.67 21.6254C15.5859 21.9225 15.3011 22.0852 15.0077 22.0656C14.9127 22.0592 14.8182 22.0433 14.7231 22.0333C14.6359 22.0244 14.6314 22.0255 14.6099 22.1166C14.5447 22.3903 14.4735 22.6621 14.3802 22.9268C14.3369 23.05 14.2923 23.1724 14.2431 23.2932C14.2211 23.3466 14.2303 23.3796 14.2774 23.4075C14.37 23.4627 14.4634 23.5166 14.5527 23.5777C14.7912 23.7401 14.8896 24.0356 14.8028 24.3177C14.7957 24.3353 14.7874 24.3523 14.7777 24.3685Z" fill="#666059"/>
<path d="M5.07047 18.2702C5.18062 18.1311 5.28514 17.9864 5.40573 17.856C5.97459 17.2401 6.66199 16.8786 7.4736 16.7824C8.19138 16.6972 8.87237 16.8287 9.50139 17.2017C10.4697 17.7757 11.0473 18.6506 11.2295 19.8038C11.3353 20.4736 11.2551 21.1277 11.0026 21.7556C10.9884 21.7909 10.9783 21.8282 10.9662 21.8647C10.9937 21.9251 10.967 21.9771 10.943 22.0295C10.8205 22.2964 10.6594 22.5356 10.4729 22.7548C9.93666 23.3848 9.28034 23.8024 8.48381 23.9469C7.42647 24.1386 6.47255 23.8808 5.64318 23.1607C4.97058 22.5764 4.56526 21.82 4.43474 20.913C4.3332 20.2072 4.41767 19.5194 4.69533 18.8625C4.76263 18.7033 4.84434 18.5527 4.92662 18.4017C4.9602 18.3387 5.00405 18.2919 5.07047 18.2702Z" fill="#ED5050"/>
<path d="M5.68499 20.3503C5.66681 19.0493 6.72315 18.0579 7.8437 18.0518C8.94268 18.0459 10.0394 18.9678 10.0413 20.3617C10.0432 21.6557 9.04621 22.6392 7.88258 22.6518C6.61488 22.6656 5.66173 21.5637 5.68499 20.3503Z" fill="#45423D"/>
<path d="M10.0035 18.2286C10.0217 18.4209 9.79313 18.5715 9.63425 18.4605C9.52644 18.385 9.4246 18.3083 9.33922 18.208C9.21618 18.0637 9.24422 17.9139 9.40717 17.8196C9.52789 17.7497 9.64043 17.7448 9.75186 17.8449C9.83031 17.9153 9.90634 17.9861 9.9626 18.0778C9.99113 18.1224 10.0055 18.1751 10.0035 18.2286Z" fill="#ED5050"/>
<path d="M6.1228 20.3657C6.09581 19.426 6.81876 18.5092 7.86806 18.5134C8.84832 18.5174 9.61346 19.3457 9.60365 20.3814C9.59405 21.4026 8.79038 22.2032 7.83525 22.1908C6.84488 22.178 6.09602 21.2998 6.1228 20.3657Z" fill="#ED5050"/>
<path d="M7.85784 21.1022C7.46741 21.1022 7.14193 20.7602 7.14479 20.3482C7.14732 19.942 7.44602 19.6021 7.86236 19.5976C8.24212 19.5936 8.57375 19.9242 8.57164 20.3545C8.56968 20.7738 8.25687 21.1027 7.85784 21.1022Z" fill="#414141"/>
<path d="M8.68244 19.1064C8.72348 19.1064 8.76363 19.1111 8.79851 19.1353C8.95022 19.2413 9.03144 19.3888 9.02601 19.5825C9.02315 19.6822 8.88754 19.7868 8.79508 19.7647C8.63873 19.7274 8.51129 19.6458 8.42425 19.499C8.349 19.3721 8.3639 19.2659 8.47665 19.1761C8.53767 19.128 8.6074 19.1083 8.68244 19.1064Z" fill="#ED5050"/>
<path d="M5.07078 18.2699C4.95711 18.4595 4.84709 18.6506 4.75921 18.8557C4.61155 19.2014 4.51568 19.5695 4.47493 19.9464C4.42089 20.4214 4.45819 20.9032 4.58465 21.363C4.7111 21.8228 4.92412 22.2507 5.211 22.622C5.64714 23.186 6.19674 23.5746 6.85516 23.7914C7.2368 23.9169 7.62978 23.9747 8.02782 23.9468C9.06908 23.8745 9.91825 23.4075 10.5672 22.5429C10.7034 22.3605 10.8209 22.1636 10.9178 21.9553C10.9323 21.9244 10.9503 21.8951 10.9666 21.8649C11.0571 21.9096 11.7614 22.3888 11.8815 22.4773C11.9292 22.5122 11.9076 22.5586 11.8849 22.6012C11.7612 22.8339 11.6305 23.0619 11.4731 23.2717C11.1291 23.7301 10.7279 24.121 10.2533 24.4275C9.79267 24.7253 9.28664 24.9367 8.7576 25.0525C8.34833 25.1434 7.93375 25.157 7.52041 25.1298C6.97058 25.0942 6.44367 24.9474 5.9421 24.7023C5.59849 24.5363 5.27649 24.3247 4.98389 24.0726C4.40841 23.573 3.96201 22.9694 3.67322 22.2406C3.48867 21.7727 3.37325 21.2778 3.33103 20.773C3.26495 20.0204 3.37816 19.296 3.62973 18.5918C3.72191 18.3338 3.8435 18.092 3.97348 17.8541C3.98624 17.831 4.00056 17.8078 4.01531 17.786C4.09428 17.6678 4.10927 17.664 4.22667 17.7345C4.42382 17.853 4.80305 18.1009 4.99611 18.225C5.0219 18.2383 5.04686 18.2533 5.07078 18.2699Z" fill="#666059"/>
<path d="M11.1928 21.1163C11.2924 20.6495 11.3017 20.166 11.2202 19.6952C11.1387 19.2244 10.968 18.7756 10.7184 18.3758C10.3012 17.809 9.77706 17.3314 9.19541 17.0367C8.83235 16.8718 8.44327 16.7801 8.04821 16.766C7.00529 16.7269 6.11118 17.0907 5.38282 17.882C5.2683 18.0087 5.16073 18.1421 5.06068 18.2817C4.97497 18.2278 4.18605 17.8036 4.07515 17.7027C4.03109 17.6627 4.37505 17.252 4.55183 17.0603C4.93819 16.6408 5.3749 16.2943 5.87669 16.0405C6.34632 15.7853 6.88316 15.6395 7.42481 15.5789C7.84011 15.5316 8.25956 15.5433 8.67193 15.6137C9.21545 15.7079 9.7166 15.9307 10.1918 16.2285C10.5177 16.4306 10.8178 16.6754 11.0846 16.9575C11.609 17.5161 11.9949 18.1641 12.2124 18.9201C12.3509 19.4054 12.418 19.9104 12.4114 20.417C12.4042 21.1729 12.2241 21.8673 11.9625 22.4266C11.9107 22.5375 11.9577 22.5347 11.8074 22.4266C11.6227 22.2875 11.1618 21.9968 10.9673 21.8652C10.9552 21.8554 11.114 21.4887 11.1928 21.1163Z" fill="#45423D"/>
<path d="M6.3499 1.41546C6.26973 1.14673 6.20815 0.872678 6.14065 0.600337C6.1228 0.52863 6.14284 0.509385 6.21543 0.49082C10.2317 -0.538163 15.1156 0.248071 17.6241 1.04856C18.0217 1.19884 18.4086 1.37346 18.7665 1.61237C18.9218 1.71611 19.0691 1.8304 19.1851 1.98367C19.2173 2.02565 19.2463 2.07027 19.2719 2.11711C19.3326 2.23094 19.3461 2.3457 19.2891 2.4702C19.157 2.75904 19.0133 3.04138 18.858 3.31723C18.7575 3.49684 18.6545 3.67472 18.5526 3.85353C18.5046 3.94029 18.451 4.02331 18.3916 4.10195C18.3399 4.15289 18.2815 4.1284 18.2257 4.11517C17.9799 4.05716 17.7319 4.01179 17.4878 3.94844C17.4698 3.9438 17.4514 3.95169 17.4332 3.95237C17.1774 3.86512 16.9075 3.85515 16.6477 3.78995C16.6137 3.78135 16.5841 3.80306 16.5515 3.79725C16.1249 3.70988 15.6923 3.66577 15.2628 3.60359C15.1118 3.58166 14.9558 3.59327 14.8095 3.53641C14.7535 3.47411 14.7433 3.39264 14.7244 3.31409C14.6161 2.85067 14.4755 2.40092 14.2179 2.00153C14.1786 1.94085 14.136 1.88296 14.0913 1.82656C13.9573 1.65704 13.7972 1.55621 13.5799 1.52617C13.0131 1.4476 12.4455 1.37974 11.8762 1.32891C10.929 1.24386 9.98065 1.22934 9.03169 1.24351C8.56338 1.25034 8.09551 1.28319 7.62808 1.32566C7.24105 1.36047 6.8549 1.40177 6.46986 1.45549C6.42216 1.46036 6.38096 1.45734 6.3499 1.41546Z" fill="#ED5050"/>
<path d="M19.6676 9.50624C19.401 9.50428 19.1341 9.49847 18.8675 9.50241C18.7824 9.50358 18.7635 9.45146 18.745 9.38708C18.6727 9.36386 18.6748 9.29426 18.6637 9.23625C18.5775 8.78963 18.4964 8.34176 18.4025 7.89676C18.1716 6.80269 17.9123 5.71642 17.597 4.64556C17.5427 4.46108 17.4843 4.27798 17.4311 4.09301C17.415 4.03675 17.384 3.97537 17.4363 3.91897C17.4557 3.89577 17.4814 3.89577 17.5067 3.90053C17.8036 3.95854 18.1 4.01655 18.3917 4.10034C18.5831 4.66796 18.7441 5.24544 18.8928 5.82688C19.0946 6.61705 19.2679 7.41454 19.4293 8.2148C19.4896 8.51371 19.6669 9.49882 19.6676 9.50624Z" fill="#45423D"/>
<path d="M6.3505 1.4156C6.70129 1.35249 7.05539 1.31583 7.40925 1.2824C7.66446 1.25826 7.92096 1.24283 8.17683 1.22438C8.88765 1.17241 9.59916 1.17344 10.3104 1.18611C10.8271 1.19526 11.3433 1.22415 11.8591 1.26732C12.2026 1.29609 12.5456 1.32917 12.8878 1.37035C13.1753 1.40516 13.4605 1.4554 13.7481 1.49485C13.8411 1.50751 13.9111 1.55553 13.9775 1.61947C14.2065 1.83993 14.3682 2.1096 14.4951 2.40385C14.6464 2.75357 14.7501 3.11929 14.8189 3.49628C14.8029 3.54919 14.762 3.54989 14.7206 3.54722C14.5379 3.53561 14.3547 3.52206 14.1727 3.50417C14.0121 3.48851 13.8509 3.48097 13.6905 3.47146C13.4349 3.4566 13.1789 3.42736 12.922 3.44234C12.8228 3.44824 12.7251 3.4219 12.6262 3.42029C12.4923 3.4182 12.4507 3.44871 12.4042 3.57948C12.1304 4.35073 11.9049 5.13791 11.7068 5.93412C11.4006 7.16404 11.1671 8.41011 10.9707 9.66405C10.9181 9.99915 10.8752 10.3359 10.8283 10.672C10.8187 10.7404 10.8117 10.8104 10.7704 10.8693C10.7381 10.9034 10.697 10.9057 10.6576 10.8949C10.4735 10.8448 10.2906 10.7889 10.1069 10.7373C10.0925 10.7339 10.0792 10.7269 10.068 10.7167C10.0568 10.7066 10.0482 10.6938 10.0428 10.6793C10.0132 10.5954 10.0318 10.5102 10.0437 10.4276C10.2309 9.07114 10.4601 7.72321 10.7616 6.38965C10.9748 5.44653 11.2178 4.51295 11.529 3.5999C11.5762 3.46182 11.5497 3.42167 11.4121 3.42005C10.8664 3.41366 10.3217 3.43363 9.77627 3.46112C9.50223 3.47505 9.22833 3.48689 8.95495 3.51103C8.93667 3.51103 8.91829 3.51171 8.8999 3.51183C8.61451 3.51382 8.60791 3.52042 8.51793 3.80018C7.99421 5.4267 7.6281 7.09408 7.34527 8.78361C7.26067 9.28894 7.18655 9.79588 7.11122 10.3027C7.10439 10.3491 7.09954 10.3948 7.07179 10.4337C7.04537 10.4786 7.00173 10.4846 6.95791 10.4917C6.73036 10.5265 6.50149 10.5508 6.27505 10.5931C6.22404 10.6028 6.16138 10.6142 6.15112 10.5277C6.18911 10.2606 6.22714 9.99347 6.26524 9.72637C6.36392 9.03158 6.47568 8.33924 6.6005 7.64939C6.76416 6.74552 6.95141 5.84871 7.1827 4.9627C7.29284 4.54242 7.40661 4.12309 7.54507 3.71187C7.59352 3.56775 7.59331 3.56775 7.48855 3.46821C7.2359 3.22722 6.98412 2.98529 6.73015 2.74579C6.68344 2.70265 6.65075 2.6452 6.63662 2.5815C6.55061 2.23026 6.46041 1.8802 6.37163 1.52966C6.35626 1.49387 6.34889 1.45486 6.3505 1.4156Z" fill="#45423D"/>
<path d="M6.3508 1.41487C6.36417 1.4515 6.37942 1.48766 6.37163 1.52857C6.34969 1.49402 6.32185 1.46005 6.3508 1.41487Z" fill="#A9A9A9"/>
<path d="M12.1812 11.5002C11.7592 11.2614 11.3167 11.0731 10.8642 10.9101C10.823 10.8953 10.7797 10.8843 10.7483 10.8486C10.7949 10.5085 10.8379 10.1679 10.8886 9.82847C11.0061 9.04273 11.1433 8.26085 11.3002 7.4829C11.5392 6.30378 11.8251 5.13815 12.201 3.99848C12.2612 3.81608 12.3235 3.63448 12.3861 3.45312C12.4177 3.36135 12.4191 3.361 12.5124 3.36378C13.0329 3.37933 13.5533 3.40033 14.0731 3.43467C14.3218 3.45104 14.5697 3.47517 14.8181 3.49582C15.2285 3.53737 15.6374 3.59063 16.0456 3.65155C16.2191 3.67754 16.3926 3.70144 16.5649 3.7352C16.6639 3.77687 16.7254 3.85668 16.7852 3.94836C17.0126 4.29725 17.1936 4.674 17.3444 5.06225C17.5021 5.46836 17.6463 5.8826 17.7436 6.31179C17.7819 6.48075 17.8365 6.6454 17.8758 6.81375C18.0048 7.36781 18.1476 7.91825 18.2518 8.47869C18.3052 8.76611 18.362 9.05327 18.4322 9.33731C18.4511 9.41286 18.4821 9.49838 18.3896 9.55279C18.3797 9.5644 18.3717 9.57889 18.3594 9.58575C18.196 9.67684 18.0857 9.82513 17.9784 9.97632C17.799 10.2287 17.6214 10.4824 17.4432 10.7357C17.3931 10.7589 17.3515 10.7397 17.3106 10.7087C17.096 10.5467 16.8793 10.3876 16.6606 10.2312C16.5495 10.1515 16.541 10.1116 16.6155 9.99394C16.7214 9.82686 16.8351 9.66558 16.9443 9.50093C16.9863 9.43758 17.0312 9.37596 17.0655 9.30751C17.1272 9.18336 17.1045 9.05954 17.0097 8.9854C16.9147 8.91125 16.7963 8.92633 16.7053 9.03391C16.5904 9.16967 16.4999 9.32525 16.4018 9.47483C16.0903 9.94768 15.7783 10.4202 15.4655 10.8924C15.4362 10.9367 15.4062 10.981 15.3864 11.0316C15.3405 11.1465 15.3724 11.2648 15.4651 11.3285C15.5608 11.3944 15.6712 11.3814 15.7523 11.2835C15.8657 11.1466 15.9558 10.9907 16.0546 10.8426C16.1174 10.7476 16.1803 10.6524 16.2453 10.559C16.2905 10.494 16.3406 10.4844 16.4058 10.5285C16.6434 10.6894 16.8703 10.8666 17.1021 11.0362C17.1409 11.0647 17.1792 11.0983 17.1778 11.1566C17.1052 11.2811 17.0329 11.4058 16.9599 11.5298C16.9232 11.5922 16.884 11.6527 16.8478 11.7155C16.697 11.9751 16.6923 12.2435 16.8223 12.5099C17.1723 13.2273 17.5359 13.937 17.9464 14.6188C17.9975 14.7037 18.0523 14.7857 18.1036 14.87C18.2483 15.1074 18.4643 15.2026 18.7187 15.2108C18.9638 15.2183 19.2084 15.19 19.4526 15.1675C19.4469 16.2416 19.1552 17.2242 18.609 18.1285C18.5324 18.255 18.4497 18.309 18.3005 18.3046C17.9051 18.292 17.5092 18.3023 17.1135 18.3034C17.0336 18.2917 17.0364 18.2173 17.0253 18.1613C16.9785 17.931 16.9168 17.705 16.8516 17.4798C16.6013 16.6108 16.2385 15.7823 15.7733 15.0179C15.623 14.7707 15.4551 14.5373 15.2977 14.2959C15.1514 14.0946 14.9935 13.903 14.8307 13.7172C14.5404 13.3861 14.2393 13.0662 13.9097 12.7773C13.4331 12.3619 12.9225 11.9917 12.384 11.6709C12.3094 11.6237 12.22 11.5944 12.1812 11.5002Z" fill="#B9E1E1"/>
<path d="M18.3665 9.57991C18.397 9.51028 18.3944 9.41423 18.3786 9.34865C18.2394 8.77721 17.257 4.79315 16.7016 3.91641C16.6342 3.81013 16.6184 3.78194 16.5654 3.7354C16.8264 3.75675 17.0821 3.81476 17.3407 3.85283C17.3606 3.85524 17.3795 3.86252 17.3963 3.87413C17.4128 3.88572 17.4265 3.90129 17.4364 3.91955C17.7834 5.02965 18.081 6.1542 18.3294 7.29317C18.4817 7.98726 18.6379 8.73311 18.762 9.43347L18.7639 9.43801C18.7889 9.48685 18.7953 9.47339 18.6499 9.49254C18.5599 9.50471 18.4386 9.54706 18.3665 9.57991Z" fill="#DCF9FB"/>
<path d="M10.0678 10.6653C9.84189 10.6189 9.61621 10.5681 9.38977 10.5273C9.1196 10.4791 8.84722 10.4458 8.57374 10.4276C8.31492 10.4099 8.0583 10.4044 7.79903 10.4038C7.65331 10.4038 7.50572 10.4188 7.35913 10.4074C7.29911 10.3589 7.30989 10.2931 7.31859 10.2271C7.44294 9.28239 7.58755 8.34171 7.776 7.40754C7.90818 6.74965 8.05697 6.09639 8.24013 5.45265C8.41504 4.83769 8.61879 4.2335 8.93455 3.67969C8.98213 3.59637 8.98963 3.52745 8.9393 3.44937C8.9741 3.43462 9.01111 3.43474 9.04756 3.43301C9.87867 3.39333 10.7097 3.35027 11.542 3.35828C11.5779 3.35828 11.6152 3.34934 11.6502 3.36814C11.6641 3.40981 11.6408 3.4438 11.6288 3.4785C11.2618 4.53438 10.9845 5.61857 10.7457 6.7138C10.5431 7.64299 10.375 8.57912 10.23 9.52004C10.1716 9.90131 10.122 10.2836 10.0678 10.6653Z" fill="#B9E1E1"/>
<path d="M9.0117 3.43536C9.16049 3.41703 9.14641 3.42562 9.0572 3.58619C8.81632 4.0197 8.61345 4.46537 8.45848 4.93565C8.36859 5.2082 8.28147 5.4833 8.21418 5.76445C8.14071 6.07125 8.05404 6.37445 7.98587 6.68284C7.9168 6.99498 7.85854 7.30941 7.79467 7.6227C7.72925 7.94352 7.6625 8.26402 7.61272 8.58786C7.53562 9.09066 7.46116 9.59381 7.38935 10.0973C7.37482 10.1998 7.35631 10.3029 7.35929 10.4078C7.32215 10.4253 7.06797 10.4529 7.04858 10.4078C7.06532 10.161 7.10926 9.91794 7.14549 9.67413C7.23515 9.0717 7.33589 8.47125 7.44774 7.87275C7.70864 6.48965 8.03014 5.1228 8.46101 3.78704C8.48822 3.70304 8.52037 3.62066 8.5445 3.53572C8.55859 3.48595 8.58667 3.4675 8.63172 3.4661C8.73491 3.46064 8.99343 3.43454 9.0117 3.43536Z" fill="#DCF9FB"/>
<path d="M22.7523 20.4488C22.4958 20.428 22.2103 20.2156 22.0063 20.7644C21.8035 21.3082 22.1016 21.5177 22.0567 21.4995C22.0345 21.4964 22.0122 21.4957 21.9898 21.4974C21.822 21.4995 21.6485 21.4702 21.4809 21.47C21.4216 21.4412 21.4355 21.3902 21.4454 21.3405C21.5298 20.9128 21.6591 20.4966 21.8309 20.099C22.0583 19.5777 22.3365 19.0896 22.6852 18.6464C23.17 18.0307 23.7377 17.5208 24.3981 17.1247C25.0852 16.7122 25.8229 16.4572 26.6046 16.346C26.9821 16.2924 27.3629 16.2725 27.7446 16.3006C27.8893 16.3114 28.0025 16.2491 28.0802 16.1234C28.1121 16.0721 28.1471 16.0332 28.2015 16.0129C28.2644 16.0122 28.3216 16.0403 28.3816 16.0543C28.5137 16.0857 28.5274 16.0805 28.5853 15.9546C28.6789 15.7511 28.7761 15.5496 28.8971 15.3616C28.9267 15.3415 28.9515 15.3141 28.9694 15.282C29.1262 15.0291 29.3266 14.8201 29.5622 14.6485C29.5689 14.6452 29.5764 14.6438 29.5835 14.6447C29.6689 14.6447 29.6911 14.7133 29.7116 14.7803C29.8019 15.0746 29.9033 15.3637 30.0288 15.6439C30.2366 16.1079 30.4931 16.5373 30.8226 16.9161C30.8715 16.9727 30.9336 17.0231 30.9048 17.1151C30.7334 17.4323 30.5618 17.7495 30.3902 18.0665C30.365 18.1131 30.3373 18.1583 30.3106 18.2041C30.2628 18.284 30.2089 18.3596 30.1496 18.4303C30.1343 18.4184 30.1179 18.4081 30.1007 18.3992C30.0908 18.3942 30.0721 18.3767 30.0624 18.3711C29.8828 18.2683 29.9083 18.2615 29.9979 18.0695C30.0539 17.9485 30.0832 17.8258 30.0477 17.6893C30.0336 17.6329 30.0087 17.5802 29.9745 17.5346C29.9402 17.4889 29.8974 17.4513 29.8487 17.4239C29.7339 17.3581 29.6145 17.296 29.4833 17.2672C29.2992 17.227 29.1068 17.3169 29.0181 17.4922C28.9888 17.5503 28.9683 17.6126 28.9411 17.6715C28.9021 17.7579 28.8796 17.7699 28.7945 17.7444C28.5686 17.6765 28.3405 17.621 28.1065 17.5936C28.0845 17.5908 28.0637 17.5819 28.0419 17.5798C27.9795 17.5721 27.9531 17.5334 27.9538 17.47C27.9538 17.4082 27.9498 17.3461 27.9538 17.2843C27.9682 17.0505 27.8268 16.8924 27.6217 16.8498C27.4737 16.8189 27.321 16.821 27.174 16.8559C26.9859 16.9004 26.8745 17.0214 26.8483 17.2272C26.8377 17.3033 26.8315 17.3803 26.8296 17.4573C26.8287 17.5578 26.8221 17.5662 26.7259 17.5861C26.6072 17.6107 26.4876 17.6292 26.3687 17.6528C26.2463 17.6776 26.1252 17.7083 26.0054 17.7451C25.9274 17.7689 25.9092 17.7593 25.8766 17.6828C25.8468 17.6123 25.8187 17.5412 25.7802 17.4751C25.6785 17.301 25.4946 17.2207 25.3065 17.2717C25.1713 17.3089 25.0427 17.3686 24.9257 17.4489C24.755 17.565 24.6926 17.7842 24.765 17.9906C24.7865 18.052 24.8179 18.1093 24.8432 18.1695C24.8749 18.2451 24.872 18.2631 24.8092 18.3036C24.5867 18.4472 24.3809 18.6145 24.1762 18.7838C24.1164 18.8334 24.0998 18.8339 24.044 18.7796C23.9942 18.7283 23.9412 18.6803 23.8859 18.6361C23.7285 18.5162 23.5134 18.5148 23.3654 18.6464C23.2624 18.7382 23.1648 18.8381 23.0913 18.9608C22.9799 19.1464 23.0057 19.367 23.1574 19.5177C23.2187 19.5788 23.225 19.5835 23.3248 19.6554C23.1716 19.8167 22.8721 20.2528 22.7844 20.4245" fill="#414141"/>
<path d="M20.7022 21.4482C20.086 21.4475 19.4698 21.4468 18.8536 21.4461C17.874 21.4461 16.8948 21.4461 15.9153 21.4461C15.6893 21.4461 15.6855 21.4386 15.717 21.2052C15.739 21.035 15.743 20.8653 15.6522 20.7105C15.5546 20.5436 15.4165 20.4366 15.2312 20.4067C15.1407 20.3912 15.0495 20.3814 14.958 20.3774C14.8479 20.3741 14.8278 20.3453 14.8237 20.2283C14.8105 19.8499 14.7812 19.474 14.7122 19.1013C14.6848 18.9538 14.6923 18.9414 14.8327 18.9006C14.9462 18.8676 15.0568 18.8267 15.158 18.7625C15.4099 18.6028 15.4837 18.3301 15.4234 18.0499C15.3957 17.922 15.3539 17.7975 15.3133 17.6734C15.2076 17.3515 14.9277 17.1841 14.6105 17.2466C14.5018 17.2682 14.3976 17.3047 14.2929 17.3396C14.2068 17.3686 14.196 17.3656 14.156 17.2775C13.9894 16.9074 13.7928 16.553 13.5684 16.2182C13.5262 16.1559 13.5285 16.1363 13.5927 16.0855C13.6808 16.015 13.7521 15.9258 13.8339 15.8485C14.0304 15.6629 14.0269 15.2722 13.9093 15.0856C13.7985 14.91 13.6581 14.7606 13.5053 14.6295C13.3131 14.4638 12.9761 14.4579 12.7624 14.6602C12.6889 14.73 12.6054 14.788 12.5403 14.8674C12.5013 14.9151 12.4653 14.9161 12.4191 14.8751C12.3102 14.7777 12.2002 14.6815 12.0872 14.5895C11.9101 14.4453 11.7237 14.3156 11.5347 14.1889C11.3709 14.0791 11.3785 14.1037 11.4618 13.922C11.4966 13.8496 11.5271 13.775 11.5532 13.6987C11.6485 13.4016 11.5621 13.076 11.2583 12.9135C11.1272 12.8439 10.9956 12.7721 10.8543 12.7316C10.656 12.6748 10.4625 12.6852 10.2883 12.8215C10.2176 12.8776 10.1609 12.9509 10.123 13.0351C10.0761 13.1356 10.0349 13.239 9.98998 13.3404C9.95597 13.4169 9.94848 13.4217 9.8717 13.3962C9.57719 13.2988 9.27606 13.2322 8.97153 13.1812C8.89918 13.1696 8.82659 13.158 8.75412 13.1471C8.64915 13.1311 8.64099 13.1225 8.63913 13.0064C8.63771 12.9098 8.63804 12.8132 8.63913 12.7163C8.64156 12.448 8.50697 12.2754 8.28911 12.1634C8.2265 12.1301 8.15793 12.111 8.0879 12.1074C7.92334 12.1014 7.75845 12.0904 7.59413 12.119C7.28078 12.1742 7.08618 12.4046 7.07648 12.7383C7.07405 12.8233 7.07648 12.9083 7.07549 12.9936C7.07393 13.1239 7.06887 13.1278 6.94982 13.1478C6.58392 13.2089 6.21914 13.2755 5.86362 13.3888C5.77881 13.4157 5.76867 13.4099 5.72991 13.3217C5.69301 13.2376 5.65699 13.153 5.61976 13.0689C5.47328 12.7346 5.13362 12.6266 4.82061 12.7468C4.70334 12.7916 4.5889 12.8441 4.47794 12.904C4.2959 13.0032 4.17584 13.1564 4.13651 13.3745C4.11628 13.4891 4.12651 13.6072 4.16604 13.716C4.20019 13.8142 4.24545 13.9069 4.28819 14.001C4.32442 14.0808 4.32034 14.099 4.25106 14.1433C3.95886 14.3301 3.68593 14.545 3.41952 14.7698C3.38527 14.7988 3.35343 14.8313 3.32039 14.8611C3.26345 14.9114 3.24593 14.9114 3.18821 14.859C3.12444 14.8009 3.05868 14.7449 2.999 14.6824C2.77398 14.4467 2.3527 14.4481 2.1343 14.6986C2.06987 14.7723 2.00851 14.8494 1.94242 14.9215C1.86248 15.0083 1.85719 15.0053 1.77524 14.9257C1.70563 14.858 1.54152 14.7061 1.52984 14.6969C1.42048 14.5684 1.42499 14.5675 1.53568 14.4359C2.47677 13.3168 3.66978 12.4649 5.00509 11.9585C5.67814 11.7032 6.37081 11.5368 7.08254 11.4722C7.51724 11.4342 7.95402 11.4298 8.38933 11.4592C8.97885 11.4965 9.56308 11.5984 10.1325 11.7634C10.5997 11.898 11.0541 12.0776 11.49 12.3001C11.7878 12.4481 12.0767 12.6152 12.355 12.8007C12.7449 13.0607 13.1139 13.3539 13.4585 13.6773C13.7882 13.9892 14.0977 14.324 14.385 14.6794C14.424 14.7304 14.4604 14.7836 14.4942 14.8386C14.763 15.1581 14.9788 15.5175 15.1804 15.8848C15.5856 16.6209 15.8886 17.414 16.0803 18.2402C16.1474 18.5293 16.1918 18.8227 16.2415 19.1153C16.2845 19.3705 16.4622 19.4578 16.6804 19.3342C16.9539 19.1795 17.1276 18.811 17.0879 18.4848C17.0791 18.4141 17.0328 18.3341 17.1049 18.2676C17.1621 18.2337 17.225 18.2365 17.2874 18.2362C17.6176 18.2353 17.9476 18.2318 18.2775 18.2379C18.4137 18.2404 18.5049 18.1868 18.5779 18.0679C18.8507 17.6224 19.0587 17.1364 19.1946 16.626C19.3019 16.2276 19.379 15.8233 19.405 15.4089C19.4083 15.3665 19.4076 15.3237 19.4031 15.2813C19.3974 15.231 19.4092 15.1895 19.4534 15.1631C19.5251 15.1617 19.6818 15.1523 19.6889 15.1516C19.9628 15.1345 19.9628 15.1347 19.9633 15.4248C19.9633 15.6453 19.9621 15.8656 19.964 16.0855C19.9657 16.287 20.0167 16.3491 20.2037 16.3987C20.6514 16.5188 21.1045 16.5577 21.5661 16.5324C21.7795 16.5207 21.988 16.4804 22.1998 16.4626C22.2435 16.4575 22.2863 16.4458 22.327 16.428C22.4555 16.376 22.4934 16.3235 22.4952 16.1763C22.4986 15.9021 22.4943 15.6278 22.4976 15.3534C22.4983 15.2937 22.4867 15.2279 22.5371 15.1795C22.6203 15.112 22.6997 15.1635 22.7739 15.1963C22.9576 15.2775 23.0956 15.4218 23.2225 15.5779C23.4575 15.8668 23.6317 16.1969 23.7971 16.5328C23.8116 16.5598 23.8177 16.5909 23.8146 16.6218C23.809 16.697 23.7572 16.7344 23.7045 16.7705C23.2717 17.065 22.8834 17.4147 22.526 17.805C22.1163 18.2524 21.7765 18.7524 21.4886 19.293C21.1541 19.9206 20.927 20.5897 20.7927 21.2951C20.7811 21.3543 20.7925 21.4381 20.7022 21.4482Z" fill="#45423D"/>
<path d="M20.7019 21.4482C20.7295 21.3164 20.7562 21.1844 20.7855 21.0538C21.025 19.9787 21.485 19.0194 22.1491 18.1672C22.5902 17.5978 23.1133 17.1048 23.6995 16.7061C23.733 16.6829 23.7701 16.6644 23.7912 16.6249C23.8174 16.5785 25.8164 15.2233 28.0519 15.6587C28.1848 15.7605 28.2006 15.9563 28.1283 16.1337C28.0576 16.307 27.9259 16.3613 27.7151 16.3561C27.5206 16.351 27.3263 16.34 27.1327 16.3512C26.8067 16.3685 26.4829 16.4118 26.1634 16.4809C25.2881 16.6743 24.4911 17.0488 23.7758 17.6142C22.9403 18.2746 22.3096 19.11 21.8768 20.1105C21.7012 20.5191 21.5691 20.947 21.4826 21.3862C21.4772 21.4124 21.4055 21.8369 21.3833 22.0244C21.3635 22.1983 21.2843 22.3198 21.1247 22.3772C20.8905 22.4615 20.6402 22.2814 20.6352 22.0206C20.6324 21.8893 20.6593 21.7603 20.678 21.6308C20.6856 21.5793 20.6936 21.4567 20.7019 21.4482Z" fill="#A19D98"/>
<path d="M18.7944 20.5443C18.3948 20.5443 17.9951 20.5455 17.5956 20.5436C17.4084 20.5427 17.2727 20.4465 17.1954 20.27C17.1181 20.0932 17.142 19.9218 17.2541 19.7685C17.3432 19.6472 17.4706 19.6006 17.6119 19.596C17.7072 19.5929 17.8027 19.5948 17.8984 19.5948C18.573 19.5953 19.2476 19.5957 19.9222 19.5962C20.05 19.5962 20.1692 19.6194 20.2706 19.7109C20.4105 19.8373 20.4674 20.0424 20.4091 20.225C20.3807 20.3175 20.3252 20.3983 20.2507 20.4559C20.176 20.5132 20.0862 20.5446 19.9938 20.545C19.5941 20.5472 19.1941 20.5443 18.7944 20.5443Z" fill="#FC4F4F"/>
<path d="M6.15101 10.5265C6.17602 10.5475 6.20464 10.5481 6.23405 10.5419C6.48408 10.4904 6.73694 10.4607 6.99004 10.4331C7.01207 10.4305 7.00106 10.4309 7.0635 10.4246C7.95234 10.355 9.13712 10.4063 10.0688 10.6655C10.2742 10.7253 10.4811 10.7699 10.6868 10.8293C10.7078 10.8306 11.7143 11.2184 12.1053 11.4398C12.1403 11.4661 12.1574 11.4801 12.1824 11.5003C12.1984 11.6903 12.1424 11.833 12.0371 11.9626C11.8905 12.1433 11.6968 12.2727 11.48 12.3548C11.2012 12.2271 10.9237 12.0964 10.6358 11.9917C10.1263 11.8064 9.60144 11.6719 9.06806 11.5901C8.60331 11.5204 8.13398 11.4906 7.66465 11.5008C7.1109 11.5105 6.55957 11.5804 6.0194 11.7091C4.34279 12.1057 2.82253 13.0361 1.6648 14.3739C1.62779 14.4167 1.59002 14.4589 1.55291 14.5015C1.47581 14.5907 1.4421 14.6485 1.38528 14.7192C1.29087 14.8372 1.19902 14.9575 1.10705 15.0776C0.892289 15.3578 0.514836 15.3728 0.279699 15.079C0.12053 14.88 0.147523 14.5801 0.277051 14.3912C0.41828 14.1889 0.569271 13.9944 0.729386 13.8084C0.893069 13.6155 1.05255 13.4185 1.23195 13.2413C1.48342 12.9932 1.73375 12.7431 2.00723 12.5219C2.94111 11.7663 3.96463 11.1901 5.09268 10.8262C5.39079 10.7298 5.69355 10.6501 5.99967 10.5876C6.05365 10.5769 6.11026 10.5729 6.15101 10.5265Z" fill="#ED5050"/>
<path d="M15.3289 14.262C15.6022 14.6026 15.8246 14.9797 16.0392 15.362C16.2919 15.8115 16.5018 16.283 16.6798 16.7707C16.8428 17.2183 16.984 17.6729 17.0778 18.1428C17.0889 18.1957 17.1021 18.2472 17.1144 18.3004C17.139 18.4446 17.1671 18.5874 17.1371 18.7358C17.0759 19.0406 16.9317 19.2792 16.6566 19.4119C16.4259 19.5233 16.2259 19.407 16.1881 19.1425C16.0891 18.4462 15.9272 17.7666 15.6804 17.1108C15.3883 16.335 15.0058 15.6139 14.5191 14.9538C14.4969 14.9236 14.4764 14.8915 14.4551 14.8603C14.5078 14.6761 14.6168 14.5272 14.7217 14.3741C14.7808 14.2882 14.8718 14.3022 14.9479 14.2769C15.0708 14.2362 15.1999 14.203 15.3289 14.262Z" fill="#ED5050"/>
<path d="M15.2657 14.2463C14.6632 14.195 14.4739 14.821 14.4545 14.8604C14.1943 14.5265 13.9198 14.2067 13.6209 13.9101C13.0137 13.3055 12.3245 12.7992 11.5761 12.4078C11.5431 12.3907 11.5112 12.373 11.4788 12.3548C11.5068 12.32 11.7548 12.2688 11.9615 11.9719C12.1364 11.7207 12.1776 11.5503 12.1811 11.5003C12.3784 11.5784 12.5506 11.7052 12.7295 11.8179C13.0388 12.011 13.3361 12.2245 13.6196 12.4573C13.8758 12.6695 14.1244 12.8904 14.3611 13.1278C14.5233 13.2902 14.6753 13.4623 14.8287 13.6326C15.0071 13.8308 15.187 14.0301 15.3281 14.2622" fill="#ED5050"/>
<path d="M30.8953 17.1127C30.8306 16.9989 30.7322 16.9156 30.653 16.8138C30.2273 16.2667 29.9222 15.6507 29.7071 14.9828C29.6825 14.906 29.6601 14.8285 29.6352 14.7517C29.6248 14.7192 29.617 14.682 29.5731 14.6831C29.0304 14.1936 28.3752 13.9206 27.7337 13.6216C26.7646 13.1704 25.7525 12.8604 24.7288 12.5871C23.9258 12.3728 23.1125 12.2139 22.2965 12.0669C22.2223 12.0535 22.1429 12.047 22.0916 11.974C22.0781 11.9211 22.0781 11.867 22.0781 11.8131C22.077 11.1738 22.0772 10.5344 22.0791 9.89509C22.0791 9.82546 22.0588 9.7454 22.1301 9.69389C22.2909 9.73554 22.457 9.73554 22.6204 9.75944C22.9286 9.80446 23.2389 9.83799 23.5469 9.88708C23.9457 9.94996 24.3456 10.0059 24.7413 10.0894C25.0143 10.1475 25.2889 10.1963 25.5615 10.2576C25.881 10.3294 26.2004 10.402 26.5157 10.4866C27.0416 10.6274 27.5673 10.7702 28.0797 10.9601C28.2837 11.0357 28.486 11.1172 28.6926 11.1843C28.903 11.2525 29.068 11.3888 29.2249 11.5421C29.5665 11.8757 29.9071 12.2103 30.2366 12.557C30.4569 12.789 30.6781 13.0195 30.8882 13.2622C30.9792 13.3673 31.0799 13.4635 31.1747 13.5657C31.3383 13.7428 31.4905 13.9309 31.6583 14.1042C31.7928 14.2435 31.8725 14.4188 31.8824 14.6195C31.8963 14.9016 31.8876 15.1813 31.8197 15.4587C31.6945 15.9691 31.4638 16.4195 31.1508 16.8266C31.0724 16.928 30.9913 17.0277 30.8953 17.1127Z" fill="#ED5050"/>
<path d="M17.1782 11.1542L16.4199 10.6C16.4074 10.5921 16.3953 10.5831 16.3842 10.5731C16.3384 10.5267 16.3107 10.548 16.2819 10.5963C16.2389 10.668 16.1906 10.7363 16.1443 10.8058C16.0346 10.97 15.9273 11.136 15.8146 11.2977C15.7309 11.4178 15.6248 11.4548 15.5075 11.4162C15.3322 11.3582 15.253 11.1592 15.34 10.9869C15.3671 10.9325 15.4033 10.8831 15.4369 10.8325C15.8226 10.2501 16.2086 9.6677 16.5948 9.08544C16.6189 9.04681 16.6457 9.00996 16.6747 8.97522C16.7754 8.86105 16.9281 8.84318 17.0437 8.9288C17.0997 8.97021 17.1394 9.03199 17.1553 9.10232C17.1709 9.17267 17.1612 9.2466 17.1283 9.30998C17.094 9.37784 17.0501 9.4404 17.0082 9.50363C16.8884 9.68394 16.7674 9.86332 16.6471 10.0431C16.5991 10.1148 16.5979 10.1163 16.6667 10.1667C16.925 10.3566 17.1841 10.5459 17.4432 10.7346L17.1782 11.1542Z" fill="#45423E"/>
<path d="M20.3046 9.55039C20.3401 9.57675 20.3377 9.61688 20.3377 9.65483C20.3386 10.3324 20.3386 11.0099 20.3377 11.6872C20.3386 11.7104 20.3349 11.7334 20.3266 11.7549C20.2812 11.8129 20.2164 11.8106 20.1552 11.8108C19.9283 11.812 19.7016 11.7992 19.475 11.7946C18.8417 11.7802 18.2085 11.7889 17.5743 11.7902C17.5304 11.7902 17.4862 11.7927 17.4453 11.8134C17.4212 11.825 17.3992 11.8417 17.4027 11.8736C17.4061 11.9055 17.4316 11.9154 17.4571 11.9224C17.4748 11.9272 17.493 11.9295 17.5115 11.929C17.8223 11.922 18.1331 11.9356 18.4446 11.915C18.7436 11.8952 19.0441 11.9012 19.3445 11.9202C19.6036 11.9366 19.8636 11.9434 20.1231 11.9533C20.1893 11.9557 20.2552 11.951 20.3141 11.9924C20.3434 12.1477 20.3895 12.3013 20.358 12.4629C20.3573 12.4777 20.3535 12.4921 20.3464 12.5049C20.298 12.5657 20.2226 12.567 20.1597 12.5946C20.0406 12.6468 19.9813 12.732 19.985 12.8705C20.0021 13.5032 19.9548 14.1353 19.9631 14.7679C19.964 14.8412 19.9654 14.9142 19.9732 14.9875C19.9898 15.1455 19.9484 15.1975 19.7969 15.2136C19.757 15.2178 19.7165 15.219 19.6759 15.2202C19.6054 15.2211 19.535 15.2216 19.4648 15.2157C19.2589 15.2497 19.0505 15.252 18.8429 15.267C18.4581 15.2942 18.1757 15.1294 17.9752 14.7796C17.697 14.2945 17.4162 13.8111 17.1617 13.3113C17.0475 13.0872 16.9414 12.8588 16.821 12.6376C16.6277 12.2824 16.6258 11.9351 16.8515 11.5951C16.9501 11.4469 17.022 11.28 17.1397 11.1457C17.2049 10.9841 17.3106 10.8495 17.4056 10.7076C17.6235 10.369 17.8535 10.0397 18.1012 9.72457C18.1768 9.62837 18.282 9.56907 18.3789 9.50003C18.5075 9.46337 18.9739 9.45364 19.0921 9.44956C19.2263 9.44481 19.361 9.44771 19.4953 9.44956C19.5593 9.45003 20.1812 9.48554 20.3046 9.55039Z" fill="#ED5050"/>
<path d="M28.2063 16.0648C28.1647 16.0405 28.1389 16.0068 28.1417 15.9534C28.1502 15.7909 28.0505 15.7109 27.9283 15.6512C27.7659 15.5887 26.5273 15.466 25.2961 15.9167C24.8631 16.0644 24.4454 16.2486 24.0526 16.4926C23.9803 16.5375 23.9001 16.5682 23.8323 16.622C23.8228 16.6295 23.8046 16.6246 23.7905 16.6255C23.6938 16.4802 23.63 16.3156 23.543 16.1643C23.4083 15.9305 23.2657 15.7034 23.0835 15.5063C22.9405 15.3513 22.7783 15.2326 22.5734 15.189C22.5172 15.1937 22.5086 15.1502 22.5018 15.108C22.4956 15.0582 22.4935 15.0078 22.4954 14.9577C22.4954 14.6068 22.4895 14.2556 22.4968 13.9048C22.5037 13.5727 22.4675 13.2424 22.472 12.9106C22.4737 12.7844 22.4169 12.6988 22.3068 12.6497C22.2628 12.6301 22.2203 12.6076 22.1792 12.5824C22.1477 12.5629 22.1137 12.5428 22.1274 12.4933L22.1316 12.2423C22.168 12.189 22.2177 12.1966 22.2706 12.2049C22.88 12.3015 23.4853 12.4208 24.0864 12.5629C24.809 12.7351 25.5275 12.9241 26.2309 13.1704C26.7949 13.3677 27.353 13.5821 27.8933 13.8446C28.1495 13.9691 28.4109 14.0836 28.645 14.2521C28.7331 14.3156 28.8038 14.4001 28.8709 14.4879C29.0305 14.6967 28.99 14.9392 28.9752 15.1769C28.9707 15.2511 28.9371 15.3201 28.9312 15.3948C28.7932 15.6158 28.6754 15.8499 28.5795 16.0943C28.5599 16.1451 28.5336 16.1641 28.4786 16.1444C28.3899 16.1128 28.2975 16.0911 28.2063 16.0648Z" fill="#ED5050"/>
<path d="M28.9328 15.3951C28.9021 15.333 28.9071 15.2659 28.9184 15.2022C28.9425 15.0678 28.934 14.933 28.934 14.7981C28.934 14.6658 28.8645 14.5633 28.7887 14.4692C28.6932 14.3514 28.5762 14.2552 28.4448 14.1861C27.8297 13.8568 27.193 13.5828 26.5413 13.3448C26.0705 13.1726 25.5954 13.0155 25.1127 12.8853C24.5024 12.7208 23.89 12.569 23.2702 12.4444C22.914 12.3729 22.5552 12.3193 22.1988 12.2496C22.1773 12.2454 22.1548 12.2446 22.1333 12.2421C22.1333 12.1571 22.1333 12.0722 22.1333 11.9876C22.3522 12.0095 22.5677 12.0553 22.7838 12.0963C23.0648 12.1495 23.3454 12.2061 23.6255 12.2659C23.9193 12.3294 24.2136 12.391 24.5043 12.4724C24.7269 12.5345 24.9522 12.5874 25.1756 12.6487C25.7218 12.7986 26.2614 12.9709 26.7944 13.1654C27.2275 13.3234 27.6463 13.5193 28.0673 13.7087C28.4679 13.8896 28.8565 14.099 29.2302 14.3353C29.3399 14.4043 29.4406 14.4891 29.5441 14.5687C29.5807 14.5968 29.6138 14.6307 29.5741 14.6832C29.4344 14.8136 29.2902 14.9386 29.1664 15.0872C29.0839 15.1863 29.0111 15.2923 28.9328 15.3951Z" fill="#ED5050"/>
<path d="M20.3042 11.7559L20.3049 12.0103C19.5717 11.9469 18.2046 11.9469 17.5146 11.9878C17.4621 11.9852 17.4099 11.9795 17.3579 11.9708C17.3194 11.9616 17.2601 11.9093 17.261 11.8766C17.2629 11.8165 17.2957 11.7874 17.3383 11.7652C17.3915 11.7371 17.4624 11.7319 17.5222 11.7319C18.1824 11.7319 18.8428 11.7214 19.5027 11.7381C19.7696 11.7449 20.0371 11.749 20.3042 11.7559Z" fill="#ED5050"/>
<path d="M31.6212 14.8421C31.6248 15.0917 31.5773 15.3213 31.5094 15.547C31.3896 15.9462 31.1946 16.3022 30.9462 16.6274C30.8958 16.6934 30.8932 16.6937 30.8408 16.6283C30.5992 16.3294 30.4061 15.9979 30.2404 15.6472C30.1161 15.3838 30.0142 15.1108 29.9229 14.8334C29.8948 14.7473 29.8981 14.7321 29.9799 14.6878C30.2657 14.5333 30.5652 14.4235 30.8847 14.3755C31.0303 14.3535 31.1771 14.354 31.3227 14.335C31.3374 14.3338 31.352 14.3334 31.3667 14.3341C31.5052 14.3369 31.5269 14.3554 31.5789 14.4883C31.625 14.6066 31.6241 14.7295 31.6212 14.8421Z" fill="#FEFEFE"/>
<path d="M22.1176 9.75098C22.1176 10.4886 22.1257 12.1064 22.1429 12.5602C22.102 12.615 22.0488 12.595 22.0011 12.5806C21.4846 12.4218 20.9649 12.4454 20.4434 12.5458C20.3995 12.5542 20.3567 12.5657 20.3196 12.5277L20.3167 12.5314C20.2926 12.4967 20.3167 8.89225 20.3137 8.66146C20.3123 8.56236 20.3281 8.47256 20.3749 8.38554C20.4323 8.27855 20.4824 8.16728 20.5359 8.05774C20.5432 8.04978 20.5531 8.04484 20.5637 8.04381C21.1648 8.31428 21.6614 8.62815 22.1141 9.11582C22.1075 9.29208 22.1141 9.52797 22.1176 9.75098Z" fill="#414141"/>
<path d="M20.5658 8.00162H20.5568L20.5481 7.99989C20.5914 7.8907 20.5939 7.77629 20.5935 7.66003C20.5921 7.31287 20.5975 6.96559 20.5944 6.61852C20.5932 6.49194 20.6294 6.38938 20.7046 6.29039C21.0745 5.80195 21.4768 5.34143 21.9079 4.91216C22.1819 4.63926 22.4728 4.38574 22.7924 4.17177C22.8531 4.18708 22.8271 4.22875 22.8134 4.26078C22.6175 4.71607 22.6451 5.19354 22.7068 5.66743C22.7338 5.87628 22.7888 6.09152 22.9536 6.24491C22.9654 6.2546 22.9732 6.26853 22.9758 6.28403C22.9782 6.2995 22.9751 6.3154 22.9671 6.32858C22.5948 6.51085 22.3024 6.79396 22.0556 7.13382C22.0192 7.18395 21.9923 7.23697 22.0013 7.30311C21.985 7.71678 21.9885 8.13008 22.0022 8.81071C22.0015 8.81803 22.0006 8.82531 21.9994 8.83252C21.9443 8.87185 21.9084 8.82742 21.8743 8.79703C21.7273 8.66521 21.5846 8.52842 21.426 8.41087C21.2527 8.2822 21.0752 8.1621 20.883 8.06649C20.7819 8.01637 20.679 7.98247 20.5658 8.00162Z" fill="#A19D98"/>
<path d="M23.032 4.12094C23.1062 4.16006 23.1443 4.22538 23.163 4.30926C23.211 4.52258 23.2426 4.7396 23.2578 4.95824C23.2835 5.33209 23.2322 5.69388 23.1433 6.05277C23.1249 6.12748 23.1036 6.20117 23.0566 6.26288C23.0098 6.27124 22.9954 6.23552 22.9765 6.20129C22.7576 5.80539 22.7179 5.37341 22.7451 4.92841C22.7486 4.86738 22.7581 4.80635 22.7619 4.74484C22.7741 4.50849 22.8708 4.28571 23.032 4.12094Z" fill="#A19D98"/>
<path d="M22.3574 12.6051C22.4716 12.6578 22.5276 12.7354 22.5321 12.8792C22.5553 13.6044 22.5491 14.3296 22.5508 15.0547C22.5508 15.101 22.5555 15.2944 22.555 15.3482C22.5534 15.6491 22.5484 15.9499 22.5524 16.2507C22.5539 16.3566 22.5123 16.417 22.4253 16.4551C21.7001 16.6642 20.7584 16.6536 20.098 16.4319C19.9491 16.3844 19.9096 16.3259 19.9085 16.1639C19.9068 15.9518 19.9085 15.7397 19.9085 15.5273C19.9085 15.4388 19.9099 15.3501 19.9085 15.2612C19.9068 15.1724 19.9304 13.7973 19.9304 13.7549C19.9304 13.4309 19.9328 13.1067 19.9295 12.7826C19.9285 12.6807 19.9642 12.6195 20.0545 12.5769C21.1033 12.2278 21.6538 12.3294 22.3574 12.6051Z" fill="#A19D98"/>
<path d="M20.126 14.5146V12.9504C20.126 12.9234 20.1253 12.8963 20.126 12.8692C20.1284 12.7617 20.1372 12.7473 20.2352 12.7096C20.604 12.5605 21.6823 12.4196 22.2578 12.8196C22.3486 12.87 22.3633 12.9214 22.367 13.0431C22.3819 13.3171 22.3562 15.3522 22.3571 16.136C22.3571 16.1517 22.3571 16.1669 22.3571 16.1824C22.3543 16.2943 22.3472 16.2997 22.2394 16.3231C21.5681 16.4701 20.9006 16.4507 20.236 16.2767C20.1374 16.251 20.1322 16.2484 20.1322 16.1362C20.1312 15.7769 20.1312 15.4178 20.1322 15.0586C20.1322 14.877 20.1322 14.6955 20.1322 14.5139L20.126 14.5146Z" fill="#45423D"/>
<path d="M20.5413 8.02359C20.5541 7.92437 20.6115 7.91405 20.7224 7.94142C20.8554 7.98316 20.9828 8.04311 21.1012 8.11976C21.3648 8.28546 21.6172 8.46786 21.8387 8.69413C21.8881 8.74472 21.9455 8.78695 21.9992 8.83256C22.0068 8.86589 22.0238 8.89598 22.0481 8.91876C22.1181 8.98501 22.1275 9.06161 22.1134 9.15825C21.9971 9.14086 21.9318 9.06774 21.8581 8.98211C21.6581 8.75006 21.4244 8.56221 21.1766 8.39117C21.024 8.28582 20.7902 8.1707 20.6207 8.09946C20.5626 8.07509 20.5344 8.07662 20.5413 8.02359Z" fill="#DCF9FB"/>
<path d="M23.0328 4.1209C23.072 4.14342 23.0971 4.15374 22.9964 4.24772C22.8688 4.36817 22.7844 4.67183 22.7929 5.16983C22.8012 5.49995 22.8054 5.79385 23.0574 6.26284C23.0361 6.29765 23.0082 6.32331 22.9673 6.32853C22.5404 5.88656 22.5818 4.52654 22.7926 4.17172C22.8799 4.07646 22.9309 4.06567 23.0328 4.1209Z" fill="#DCF9FB"/>
</svg>
