<svg width="58" height="57" xmlns="http://www.w3.org/2000/svg" xmlns:xlink="http://www.w3.org/1999/xlink" xml:space="preserve" overflow="hidden"><g transform="translate(-246 -328)"><g><g><g><g><g><path d="M56 28C56 43.464 43.464 56 28 56 12.536 56 0 43.464 0 28-6.21725e-15 12.536 12.536-3.10862e-15 28-3.10862e-15 43.464-9.32587e-15 56 12.536 56 28Z" fill="#121825" fill-rule="nonzero" fill-opacity="1" transform="matrix(1 0 0 1.01786 247 328)"/><path d="M27.9986 7.30845C28.6897 9.93983 29.7334 12.4324 31.0879 14.7085 31.6015 14.306 32.1039 13.9257 32.5896 13.5705 30.2663 9.57621 28.9312 4.93799 28.9312 0L27.0658 0C27.0658 4.93799 25.7308 9.57621 23.4075 13.5705 23.8933 13.9257 24.3957 14.3088 24.9091 14.7085 26.2638 12.4324 27.3074 9.93983 27.9986 7.30845Z" fill="#E5D540" fill-rule="nonzero" fill-opacity="1" transform="matrix(1 0 0 1.01786 247 328)"/><path d="M42.4296 23.4076C41.88 23.0995 41.3471 22.7637 40.8336 22.4084 40.2729 22.0336 39.7427 21.6339 39.218 21.2147 38.724 20.8318 38.2466 20.4321 37.7802 20.0018 37.1641 19.4329 36.5673 18.836 35.9982 18.2198 35.5126 18.564 35.0102 18.9471 34.5049 19.3496 35.1766 20.1045 35.8955 20.8234 36.6506 21.4869 37.1086 21.906 37.5832 22.3167 38.0772 22.6998 38.5991 23.1189 39.1403 23.513 39.6928 23.8933 40.2146 24.2487 40.7475 24.5845 41.2888 24.9093 43.5759 26.2638 46.0574 27.3075 48.6889 27.9986 46.0574 28.6898 43.5732 29.7334 41.2888 31.0881 40.7475 31.4155 40.2146 31.7515 39.6928 32.1039 39.1431 32.487 38.6019 32.8783 38.0772 33.2974 37.5832 33.6805 37.1058 34.0914 36.6506 34.5105 35.8955 35.1738 35.1766 35.8929 34.5049 36.6478 35.0102 37.0503 35.5126 37.4306 35.9982 37.7774 36.5673 37.1613 37.1641 36.5645 37.7802 35.9954 38.2466 35.5653 38.724 35.1656 39.218 34.7825 39.7399 34.3633 40.2729 33.9608 40.8336 33.589 41.3471 33.2336 41.88 32.8977 42.4296 32.5897 46.4238 30.2664 51.0538 28.9314 56 28.9314L56 27.066C51.0538 27.066 46.4238 25.7309 42.4296 23.4076Z" fill="#E5D540" fill-rule="nonzero" fill-opacity="1" transform="matrix(1 0 0 1.01786 247 328)"/><path d="M15.1665 33.589C15.7272 33.9636 16.2573 34.3633 16.782 34.7825 17.276 35.1656 17.7534 35.5653 18.2198 35.9954 18.836 36.5645 19.4327 37.1613 20.0018 37.7774 20.4876 37.4332 20.9898 37.0503 21.4951 36.6478 20.8234 35.8929 20.1045 35.1738 19.3496 34.5105 18.8914 34.0914 18.4168 33.6805 17.9228 33.2974 17.4009 32.8783 16.8597 32.4842 16.3073 32.1039 15.7855 31.7487 15.2525 31.4128 14.7113 31.0881 12.4241 29.7334 9.94261 28.6898 7.31122 27.9986 9.94261 27.3075 12.4269 26.2638 14.7113 24.9093 15.2525 24.5817 15.7855 24.2459 16.3073 23.8933 16.8569 23.5104 17.3982 23.1189 17.9228 22.6998 18.4168 22.3167 18.8942 21.906 19.3496 21.4869 20.1045 20.8234 20.8234 20.1045 21.4951 19.3496 20.9898 18.9471 20.4876 18.5668 20.0018 18.2198 19.4327 18.836 18.836 19.4329 18.2198 20.0018 17.7534 20.4321 17.276 20.8318 16.782 21.2147 16.2601 21.6339 15.7272 22.0364 15.1665 22.4084 14.653 22.7637 14.12 23.0995 13.5705 23.4076 9.57621 25.7309 4.94632 27.066 0 27.066L0 28.9314C4.94632 28.9314 9.57621 30.2664 13.5705 32.5897 14.12 32.8977 14.653 33.2336 15.1665 33.589Z" fill="#E5D540" fill-rule="nonzero" fill-opacity="1" transform="matrix(1 0 0 1.01786 247 328)"/><path d="M27.9986 48.6917C27.3074 46.0602 26.2638 43.5676 24.9091 41.2916 24.3957 41.6939 23.8933 42.0742 23.4075 42.4296 25.7308 46.4238 27.0658 51.062 27.0658 56L28.9312 56C28.9312 51.062 30.2663 46.4238 32.5896 42.4296 32.1039 42.0742 31.6015 41.6913 31.0879 41.2916 29.7334 43.5676 28.6897 46.0602 27.9986 48.6917Z" fill="#E5D540" fill-rule="nonzero" fill-opacity="1" transform="matrix(1 0 0 1.01786 247 328)"/><path d="M41.905 35.1211C41.3553 35.493 40.814 35.8955 40.2894 36.3258 42.6045 39.8065 43.6676 42.5684 44.1338 44.1366 42.5656 43.6702 39.8038 42.6073 36.323 40.2922 35.8288 39.9563 35.3153 39.6011 34.7825 39.218 34.2967 38.8628 33.8109 38.4907 33.2974 38.08 32.831 37.7053 32.3454 37.3056 31.8512 36.8865 31.5072 36.5867 31.1518 36.2701 30.7881 35.9427L30.7799 35.9427C30.3329 35.5318 29.8834 35.1127 29.4254 34.6631L34.0636 30.0249 34.6603 29.4282C35.1073 29.8862 35.5374 30.3441 35.9399 30.7827L35.9482 30.7827C36.2647 31.1463 36.5839 31.5016 36.8809 31.8568 37.4027 31.4377 37.944 31.0352 38.4963 30.6633 38.1411 30.2442 37.769 29.8139 37.3583 29.3753 36.9558 28.9368 36.5367 28.4594 36.0897 28.0042 36.5367 27.5462 36.9586 27.0715 37.3583 26.6329 37.769 26.1943 38.1411 25.7642 38.4963 25.3451 37.9468 24.9702 37.4055 24.5705 36.8809 24.1514 36.5811 24.5068 36.2647 24.8621 35.9482 25.2257L35.9399 25.2257C35.5374 25.6643 35.1099 26.1222 34.6603 26.5802L34.0636 25.9835 29.4254 21.3453C29.8834 20.8983 30.3301 20.4764 30.7799 20.0657L30.7881 20.0657C31.1518 19.7381 31.5072 19.4217 31.8512 19.1219 32.3454 18.7028 32.831 18.3003 33.2974 17.9284 33.8109 17.5175 34.2967 17.1456 34.7825 16.7903 35.3153 16.4072 35.8288 16.0519 36.323 15.7161 39.8038 13.4011 42.5656 12.338 44.1338 11.8717 43.6676 13.44 42.6045 16.2018 40.2894 19.6826 40.8112 20.1128 41.3525 20.5125 41.905 20.8873 45.927 14.9056 46.4404 10.8725 46.4681 10.6476L46.6181 9.38745 45.3579 9.53734C45.133 9.5651 41.1028 10.0786 35.1183 14.1006 34.6243 14.4281 34.1106 14.7807 33.5888 15.1748 33.1032 15.5301 32.609 15.902 32.1039 16.3129 31.6291 16.6848 31.1435 17.0873 30.6467 17.5175 30.2276 17.8617 29.7973 18.2448 29.3671 18.6473L29.3587 18.6473C28.9118 19.0496 28.4622 19.4771 28.0042 19.9269L27.9958 19.9185 27.9876 19.9269C27.5294 19.4799 27.0826 19.0496 26.6329 18.6473L26.6247 18.6473C26.1943 18.2448 25.767 17.8645 25.3451 17.5175 24.8509 17.0873 24.3652 16.6876 23.8878 16.3129 23.3826 15.902 22.8884 15.5301 22.4028 15.1748 21.8809 14.7834 21.3675 14.4281 20.8733 14.1006 14.8917 10.0786 10.8586 9.5651 10.6337 9.53734L9.37356 9.38745 9.52345 10.6476C9.55122 10.8725 10.0647 14.9028 14.0867 20.8873 14.6363 20.5152 15.1776 20.1128 15.7022 19.6826 13.3872 16.2018 12.3241 13.44 11.8578 11.8717 13.4261 12.338 16.1879 13.4011 19.6686 15.7161 20.1628 16.0519 20.6762 16.4072 21.2091 16.7903 21.6949 17.1456 22.1807 17.5175 22.6942 17.9284 23.1605 18.3031 23.6464 18.7028 24.1404 19.1219 24.4846 19.4217 24.8398 19.7381 25.2035 20.0657L25.2117 20.0657C25.6587 20.4764 26.1082 20.8955 26.5664 21.3453L21.928 25.9835 21.3313 26.5802C20.8845 26.1222 20.4542 25.6643 20.0517 25.2257L20.0434 25.2257C19.7271 24.8621 19.4079 24.5068 19.1107 24.1514 18.5889 24.5705 18.0477 24.973 17.4953 25.3451 17.8505 25.7642 18.2226 26.1943 18.6333 26.6329 19.0358 27.0715 19.4549 27.5488 19.9019 28.0042 19.4549 28.4622 19.033 28.9368 18.6333 29.3753 18.2226 29.8139 17.8505 30.2442 17.4953 30.6633 18.045 31.038 18.5862 31.4377 19.1107 31.8568 19.4105 31.5016 19.7271 31.1463 20.0434 30.7827L20.0517 30.7827C20.4542 30.3441 20.8817 29.8862 21.3313 29.4282L21.928 30.0249 26.5664 34.6631C26.1082 35.1099 25.6615 35.5318 25.2117 35.9427L25.2035 35.9427C24.8398 36.2701 24.4846 36.5867 24.1404 36.8865 23.6464 37.3056 23.1605 37.7081 22.6942 38.08 22.1807 38.4907 21.6949 38.8628 21.2091 39.218 20.6762 39.6011 20.1628 39.9563 19.6686 40.2922 16.1879 42.6073 13.4261 43.6702 11.8578 44.1366 12.3241 42.5684 13.3872 39.8065 15.7022 36.3258 15.1804 35.8955 14.6391 35.4958 14.0867 35.1211 10.0647 41.1028 9.55122 45.1358 9.52345 45.3607L9.37356 46.6209 10.6337 46.4709C10.8586 46.4432 14.8889 45.9296 20.8733 41.9078 21.3675 41.5802 21.8809 41.2277 22.4028 40.8335 22.8884 40.4782 23.3826 40.1063 23.8878 39.6954 24.3624 39.3236 24.8481 38.9211 25.3451 38.4907 25.7642 38.1467 26.1943 37.7636 26.6247 37.3611L26.6329 37.3611C27.0799 36.9586 27.5294 36.5311 27.9876 36.0815L27.9958 36.0897 28.0042 36.0815C28.4622 36.5285 28.9089 36.9586 29.3587 37.3611L29.3671 37.3611C29.7973 37.7636 30.2248 38.1439 30.6467 38.4907 31.1407 38.9211 31.6265 39.3208 32.1039 39.6954 32.609 40.1063 33.1032 40.4782 33.5888 40.8335 34.1106 41.2249 34.6243 41.5802 35.1183 41.9078 41.1 45.9296 45.133 46.4432 45.3579 46.4709L46.6181 46.6209 46.4681 45.3607C46.4404 45.1358 45.927 41.1056 41.905 35.1211ZM28.6065 32.648 27.9986 33.2558 27.3906 32.648 23.3492 28.6065 22.7414 27.9986 23.3492 27.3906 27.3906 23.3492 27.9986 22.7414 28.6065 23.3492 32.648 27.3906 33.2558 27.9986 32.648 28.6065 28.6065 32.648Z" fill="#E5D540" fill-rule="nonzero" fill-opacity="1" transform="matrix(1 0 0 1.01786 247 328)"/></g></g></g></g></g></g></svg>