<svg width="57" height="57" xmlns="http://www.w3.org/2000/svg" xmlns:xlink="http://www.w3.org/1999/xlink" xml:space="preserve" overflow="hidden"><defs><linearGradient x1="374.746" y1="107.305" x2="451.723" y2="148.754" gradientUnits="userSpaceOnUse" spreadMethod="pad" id="fill0"><stop offset="0" stop-color="#2A2CBF" stop-opacity="1"/><stop offset="0.482532" stop-color="#6335FF" stop-opacity="1"/><stop offset="0.905715" stop-color="#BD89FF" stop-opacity="1"/><stop offset="1" stop-color="#BD89FF" stop-opacity="1"/></linearGradient></defs><g transform="translate(-384 -104)"><g><path d="M440.039 139.367C436.247 154.576 420.842 163.831 405.63 160.039 390.425 156.247 381.168 140.843 384.962 125.636 388.752 110.426 404.157 101.169 419.364 104.961 434.575 108.752 443.831 124.159 440.039 139.368L440.039 139.367 440.039 139.367Z" fill="url(#fill0)" fill-rule="nonzero"/><path d="M425.02 128.474C425.585 124.693 422.708 122.661 418.775 121.305L420.051 116.184 416.935 115.407 415.693 120.393C414.874 120.189 414.033 119.996 413.197 119.805L414.448 114.786 411.334 114.009 410.058 119.129C409.38 118.974 408.714 118.822 408.068 118.661L408.072 118.645 403.776 117.571 402.947 120.901C402.947 120.901 405.258 121.431 405.21 121.464 406.471 121.779 406.699 122.615 406.661 123.277L405.208 129.111C405.295 129.133 405.407 129.165 405.532 129.215 405.428 129.19 405.317 129.161 405.202 129.134L403.165 137.307C403.011 137.691 402.62 138.266 401.737 138.048 401.769 138.093 399.473 137.482 399.473 137.482L397.926 141.051 401.981 142.062C402.735 142.251 403.474 142.45 404.202 142.636L402.913 147.816 406.025 148.593 407.301 143.467C408.151 143.699 408.976 143.911 409.784 144.112L408.512 149.213 411.627 149.99 412.916 144.82C418.229 145.826 422.224 145.42 423.905 140.612 425.26 136.74 423.838 134.507 421.043 133.051 423.079 132.581 424.612 131.242 425.021 128.474L425.02 128.473 425.02 128.474ZM417.901 138.462C416.939 142.333 410.425 140.24 408.313 139.716L410.023 132.853C412.135 133.38 418.908 134.424 417.902 138.462L417.901 138.462ZM418.865 128.418C417.987 131.939 412.565 130.15 410.806 129.711L412.357 123.487C414.116 123.926 419.78 124.745 418.865 128.418L418.865 128.418Z" fill="#FFFFFF" fill-rule="nonzero" fill-opacity="1"/></g></g></svg>