<svg width="32" height="32" viewBox="0 0 32 32" fill="none" xmlns="http://www.w3.org/2000/svg">
<path d="M31.5 16C31.5 24.5604 24.5604 31.5 16 31.5C7.43959 31.5 0.5 24.5604 0.5 16C0.5 7.43959 7.43959 0.5 16 0.5C24.5604 0.5 31.5 7.43959 31.5 16Z" fill="white" stroke="#CED3E6"/>
<path d="M16 28C22.6274 28 28 22.6274 28 16C28 9.37258 22.6274 4 16 4C9.37258 4 4 9.37258 4 16C4 22.6274 9.37258 28 16 28Z" fill="#EFB914"/>
<path fill-rule="evenodd" clip-rule="evenodd" d="M19.7515 11.3912C20.3796 11.8841 20.9022 12.498 21.2885 13.1967C21.6747 13.8954 21.9167 14.6645 22 15.4585L19.8647 14.9275C19.6638 14.2565 19.2909 13.6497 18.7831 13.1673C18.2753 12.6848 17.6502 12.3435 16.9697 12.1772C14.8202 11.6425 12.6497 12.9205 12.121 15.0317C11.5922 17.143 12.9085 19.288 15.0587 19.8228C15.7384 19.9943 16.4511 19.9856 17.1263 19.7975C17.8016 19.6095 18.4161 19.2485 18.9092 18.7502L21.0445 19.2805C20.5971 19.9428 20.0214 20.5087 19.3515 20.9448C18.6817 21.3808 17.9312 21.6782 17.1445 21.8193L16.537 24.25L14.59 23.7663L15.073 21.835C14.7425 21.7806 14.4169 21.6996 14.0995 21.5928L13.6172 23.524L11.6702 23.0395L12.2777 20.6088C10.4942 19.2025 9.59649 16.8617 10.1747 14.548C10.753 12.2343 12.6475 10.5873 14.8847 10.1808L15.4922 7.75L17.4392 8.23375L16.9562 10.165C17.2867 10.2194 17.6123 10.3004 17.9297 10.4073L18.412 8.476L20.359 8.9605L19.7515 11.3912Z" fill="white"/>
</svg>
