<svg width="57" height="57" xmlns="http://www.w3.org/2000/svg" xmlns:xlink="http://www.w3.org/1999/xlink" xml:space="preserve" overflow="hidden"><defs><clipPath id="clip0"><rect x="832" y="360" width="57" height="57"/></clipPath><clipPath id="clip1"><rect x="832" y="360" width="57" height="57"/></clipPath></defs><g clip-path="url(#clip0)" transform="translate(-832 -360)"><g clip-path="url(#clip1)"><path d="M854.61 359.81C858.41 359.81 862.21 359.81 866.01 359.81 878.03 362.963 885.63 370.563 888.81 382.61 888.81 386.41 888.81 390.21 888.81 394.01 885.657 406.03 878.057 413.63 866.01 416.81 862.21 416.81 858.41 416.81 854.61 416.81 842.59 413.657 834.99 406.057 831.81 394.01 831.81 390.21 831.81 386.41 831.81 382.61 834.963 370.59 842.563 362.99 854.61 359.81Z" fill="#010000" fill-rule="evenodd" fill-opacity="0.97"/><path d="M870.95 371.21C868.024 371.137 865.11 371.264 862.21 371.59 862.5 371.298 862.88 371.108 863.35 371.02 865.952 370.708 868.485 370.771 870.95 371.21Z" fill="#63013F" fill-rule="evenodd" fill-opacity="1"/><path d="M870.95 371.21C870.95 373.237 870.95 375.263 870.95 377.29 868.85 377.168 866.823 377.295 864.87 377.67 864.49 377.923 864.11 378.177 863.73 378.43 863.603 378.43 863.477 378.43 863.35 378.43 861.234 377.934 859.081 377.934 856.89 378.43 857.374 375.158 859.147 372.878 862.21 371.59 865.11 371.264 868.024 371.137 870.95 371.21Z" fill="#FB1492" fill-rule="evenodd" fill-opacity="1"/><path d="M870.95 371.21C871.325 373.163 871.452 375.19 871.33 377.29 873.43 377.168 875.457 377.295 877.41 377.67 875.383 377.67 873.357 377.67 871.33 377.67 871.33 379.063 871.33 380.457 871.33 381.85 871.432 382.458 871.305 382.964 870.95 383.37 870.95 381.47 870.95 379.57 870.95 377.67 868.923 377.67 866.897 377.67 864.87 377.67 866.823 377.295 868.85 377.168 870.95 377.29 870.95 375.263 870.95 373.237 870.95 371.21Z" fill="#90134B" fill-rule="evenodd" fill-opacity="1"/><path d="M864.87 377.67C866.897 377.67 868.923 377.67 870.95 377.67 870.95 379.57 870.95 381.47 870.95 383.37 870.75 384.028 870.37 384.534 869.81 384.89 867.783 384.89 865.757 384.89 863.73 384.89 863.73 382.737 863.73 380.583 863.73 378.43 864.11 378.177 864.49 377.923 864.87 377.67Z" fill="#000000" fill-rule="evenodd" fill-opacity="1"/><path d="M877.41 377.67C877.41 379.063 877.41 380.457 877.41 381.85 875.383 381.85 873.357 381.85 871.33 381.85 871.33 380.457 871.33 379.063 871.33 377.67 873.357 377.67 875.383 377.67 877.41 377.67Z" fill="#FE317A" fill-rule="evenodd" fill-opacity="1"/><path d="M863.35 378.43C863.35 378.683 863.35 378.937 863.35 379.19 862.982 379.991 862.855 380.877 862.97 381.85 860.908 381.743 858.881 381.869 856.89 382.23 856.89 380.963 856.89 379.697 856.89 378.43 859.081 377.934 861.234 377.934 863.35 378.43Z" fill="#FD3278" fill-rule="evenodd" fill-opacity="1"/><path d="M863.35 379.19C863.35 381.217 863.35 383.243 863.35 385.27 863.223 385.27 863.097 385.27 862.97 385.27 861.07 385.27 859.17 385.27 857.27 385.27 857.143 385.27 857.017 385.27 856.89 385.27 856.89 384.257 856.89 383.243 856.89 382.23 858.881 381.869 860.908 381.743 862.97 381.85 862.855 380.877 862.982 379.991 863.35 379.19Z" fill="#F73F68" fill-rule="evenodd" fill-opacity="1"/><path d="M863.35 378.43C863.477 378.43 863.603 378.43 863.73 378.43 863.73 380.583 863.73 382.737 863.73 384.89 865.757 384.89 867.783 384.89 869.81 384.89 867.729 385.266 865.576 385.392 863.35 385.27 863.35 383.243 863.35 381.217 863.35 379.19 863.35 378.937 863.35 378.683 863.35 378.43Z" fill="#460F19" fill-rule="evenodd" fill-opacity="1"/><path d="M871.33 381.85C873.357 381.85 875.383 381.85 877.41 381.85 877.473 383.123 877.409 384.39 877.22 385.65 877.144 386.341 876.827 386.848 876.27 387.17 874.052 386.868 871.772 386.614 869.43 386.41 868.326 386.801 867.249 386.801 866.2 386.41 865.253 386.684 864.303 386.937 863.35 387.17 863.35 386.537 863.35 385.903 863.35 385.27 865.576 385.392 867.729 385.266 869.81 384.89 870.37 384.534 870.75 384.028 870.95 383.37 871.305 382.964 871.432 382.458 871.33 381.85Z" fill="#FB4961" fill-rule="evenodd" fill-opacity="1"/><path d="M856.89 385.27C856.89 386.03 856.89 386.79 856.89 387.55 853.667 387.968 850.563 387.968 847.58 387.55 846.654 387.875 845.704 388.128 844.73 388.31 845.63 386.906 846.897 385.956 848.53 385.46 851.314 385.27 854.1 385.207 856.89 385.27Z" fill="#FA5159" fill-rule="evenodd" fill-opacity="1"/><path d="M876.27 387.17C875.912 388.161 875.278 388.922 874.37 389.45 870.734 388.95 867.061 388.95 863.35 389.45 863.35 388.69 863.35 387.93 863.35 387.17 864.303 386.937 865.253 386.684 866.2 386.41 867.249 386.801 868.326 386.801 869.43 386.41 871.772 386.614 874.052 386.868 876.27 387.17Z" fill="#FD5855" fill-rule="evenodd" fill-opacity="1"/><path d="M856.89 387.55C856.89 388.943 856.89 390.337 856.89 391.73 854.733 391.667 852.58 391.73 850.43 391.92 850.223 392.193 849.97 392.383 849.67 392.49 847.681 391.749 845.527 391.496 843.21 391.73 843.325 392.703 843.198 393.589 842.83 394.39 842.427 391.98 843.06 389.953 844.73 388.31 845.704 388.128 846.654 387.875 847.58 387.55 850.563 387.968 853.667 387.968 856.89 387.55Z" fill="#F9604B" fill-rule="evenodd" fill-opacity="1"/><path d="M874.37 389.45C873.704 390.105 872.944 390.675 872.09 391.16 869.2 391.658 866.287 391.848 863.35 391.73 863.35 390.97 863.35 390.21 863.35 389.45 867.061 388.95 870.734 388.95 874.37 389.45Z" fill="#F36046" fill-rule="evenodd" fill-opacity="1"/><path d="M856.89 385.27C857.017 385.27 857.143 385.27 857.27 385.27 857.27 387.297 857.27 389.323 857.27 391.35 859.17 391.35 861.07 391.35 862.97 391.35 862.97 389.323 862.97 387.297 862.97 385.27 863.097 385.27 863.223 385.27 863.35 385.27 863.35 385.903 863.35 386.537 863.35 387.17 863.35 387.93 863.35 388.69 863.35 389.45 863.35 390.21 863.35 390.97 863.35 391.73 861.197 391.73 859.043 391.73 856.89 391.73 856.89 390.337 856.89 388.943 856.89 387.55 856.89 386.79 856.89 386.03 856.89 385.27Z" fill="#582017" fill-rule="evenodd" fill-opacity="1"/><path d="M857.27 385.27C859.17 385.27 861.07 385.27 862.97 385.27 862.97 387.297 862.97 389.323 862.97 391.35 861.07 391.35 859.17 391.35 857.27 391.35 857.27 389.323 857.27 387.297 857.27 385.27Z" fill="#000000" fill-rule="evenodd" fill-opacity="1"/><path d="M856.89 391.73C856.89 393.25 856.89 394.77 856.89 396.29 857.017 397.427 856.637 398.313 855.75 398.95 853.597 398.95 851.443 398.95 849.29 398.95 849.29 397.05 849.29 395.15 849.29 393.25 849.225 392.873 849.352 392.62 849.67 392.49 849.97 392.383 850.223 392.193 850.43 391.92 852.58 391.73 854.733 391.667 856.89 391.73Z" fill="#030100" fill-rule="evenodd" fill-opacity="1"/><path d="M849.67 392.49C849.352 392.62 849.225 392.873 849.29 393.25 848.922 394.051 848.795 394.937 848.91 395.91 847.284 395.841 845.637 395.715 843.97 395.53 843.583 395.793 843.203 396.047 842.83 396.29 842.83 395.657 842.83 395.023 842.83 394.39 843.198 393.589 843.325 392.703 843.21 391.73 845.527 391.496 847.681 391.749 849.67 392.49Z" fill="#FD7838" fill-rule="evenodd" fill-opacity="1"/><path d="M856.89 391.73C859.043 391.73 861.197 391.73 863.35 391.73 863.473 394.461 863.347 397.121 862.97 399.71 863.092 398.419 862.965 397.152 862.59 395.91 860.954 395.597 859.37 395.47 857.84 395.53 857.571 395.865 857.254 396.118 856.89 396.29 856.89 394.77 856.89 393.25 856.89 391.73Z" fill="#FA7737" fill-rule="evenodd" fill-opacity="1"/><path d="M848.91 395.91C848.91 397.05 848.91 398.19 848.91 399.33 846.883 399.33 844.857 399.33 842.83 399.33 842.83 398.317 842.83 397.303 842.83 396.29 843.203 396.047 843.583 395.793 843.97 395.53 845.637 395.715 847.284 395.841 848.91 395.91Z" fill="#FC8928" fill-rule="evenodd" fill-opacity="1"/><path d="M862.97 399.71C862.875 400.536 862.495 401.17 861.83 401.61 861.788 401.376 861.661 401.186 861.45 401.04 860.69 400.977 859.93 400.913 859.17 400.85 855.86 400.867 852.567 400.867 849.29 400.85 849.29 400.343 849.29 399.837 849.29 399.33 851.516 399.452 853.669 399.326 855.75 398.95 856.637 398.313 857.017 397.427 856.89 396.29 857.254 396.118 857.571 395.865 857.84 395.53 859.37 395.47 860.954 395.597 862.59 395.91 862.965 397.152 863.092 398.419 862.97 399.71Z" fill="#FB921F" fill-rule="evenodd" fill-opacity="1"/><path d="M849.29 393.25C849.29 395.15 849.29 397.05 849.29 398.95 851.443 398.95 853.597 398.95 855.75 398.95 853.669 399.326 851.516 399.452 849.29 399.33 849.29 399.837 849.29 400.343 849.29 400.85 849.29 402.497 849.29 404.143 849.29 405.79 848.914 403.71 848.788 401.556 848.91 399.33 848.91 398.19 848.91 397.05 848.91 395.91 848.795 394.937 848.922 394.051 849.29 393.25Z" fill="#7B480D" fill-rule="evenodd" fill-opacity="1"/><path d="M849.29 400.85C852.567 400.867 855.86 400.867 859.17 400.85 859.93 400.913 860.69 400.977 861.45 401.04 861.661 401.186 861.788 401.376 861.83 401.61 860.734 404.029 858.834 405.359 856.13 405.6 853.854 405.79 851.573 405.853 849.29 405.79 849.29 404.143 849.29 402.497 849.29 400.85Z" fill="#FBA60E" fill-rule="evenodd" fill-opacity="1"/></g></g></svg>