<?xml version="1.0" encoding="UTF-8"?>
<!DOCTYPE svg PUBLIC "-//W3C//DTD SVG 1.1//EN" "http://www.w3.org/Graphics/SVG/1.1/DTD/svg11.dtd">
<svg xmlns="http://www.w3.org/2000/svg" version="1.1" width="150px" height="150px" style="shape-rendering:geometricPrecision; text-rendering:geometricPrecision; image-rendering:optimizeQuality; fill-rule:evenodd; clip-rule:evenodd" xmlns:xlink="http://www.w3.org/1999/xlink">
<g><path style="opacity:0.97" fill="#010000" d="M 59.5,-0.5 C 69.5,-0.5 79.5,-0.5 89.5,-0.5C 121.131,7.798 141.131,27.798 149.5,59.5C 149.5,69.5 149.5,79.5 149.5,89.5C 141.202,121.131 121.202,141.131 89.5,149.5C 79.5,149.5 69.5,149.5 59.5,149.5C 27.8687,141.202 7.86865,121.202 -0.5,89.5C -0.5,79.5 -0.5,69.5 -0.5,59.5C 7.798,27.8687 27.798,7.86865 59.5,-0.5 Z"/></g>
<g><path style="opacity:1" fill="#63013f" d="M 102.5,29.5 C 94.7989,29.3089 87.1322,29.6423 79.5,30.5C 80.2625,29.7321 81.2625,29.2321 82.5,29C 89.3464,28.1794 96.013,28.346 102.5,29.5 Z"/></g>
<g><path style="opacity:1" fill="#fb1492" d="M 102.5,29.5 C 102.5,34.8333 102.5,40.1667 102.5,45.5C 96.9738,45.1786 91.6405,45.5119 86.5,46.5C 85.5,47.1667 84.5,47.8333 83.5,48.5C 83.1667,48.5 82.8333,48.5 82.5,48.5C 76.9327,47.196 71.266,47.196 65.5,48.5C 66.7725,39.8905 71.4392,33.8905 79.5,30.5C 87.1322,29.6423 94.7989,29.3089 102.5,29.5 Z"/></g>
<g><path style="opacity:1" fill="#90134b" d="M 102.5,29.5 C 103.488,34.6405 103.821,39.9738 103.5,45.5C 109.026,45.1786 114.36,45.5119 119.5,46.5C 114.167,46.5 108.833,46.5 103.5,46.5C 103.5,50.1667 103.5,53.8333 103.5,57.5C 103.768,59.099 103.434,60.4324 102.5,61.5C 102.5,56.5 102.5,51.5 102.5,46.5C 97.1667,46.5 91.8333,46.5 86.5,46.5C 91.6405,45.5119 96.9738,45.1786 102.5,45.5C 102.5,40.1667 102.5,34.8333 102.5,29.5 Z"/></g>
<g><path style="opacity:1" fill="#000000" d="M 86.5,46.5 C 91.8333,46.5 97.1667,46.5 102.5,46.5C 102.5,51.5 102.5,56.5 102.5,61.5C 101.974,63.2303 100.974,64.5637 99.5,65.5C 94.1667,65.5 88.8333,65.5 83.5,65.5C 83.5,59.8333 83.5,54.1667 83.5,48.5C 84.5,47.8333 85.5,47.1667 86.5,46.5 Z"/></g>
<g><path style="opacity:1" fill="#fe317a" d="M 119.5,46.5 C 119.5,50.1667 119.5,53.8333 119.5,57.5C 114.167,57.5 108.833,57.5 103.5,57.5C 103.5,53.8333 103.5,50.1667 103.5,46.5C 108.833,46.5 114.167,46.5 119.5,46.5 Z"/></g>
<g><path style="opacity:1" fill="#fd3278" d="M 82.5,48.5 C 82.5,49.1667 82.5,49.8333 82.5,50.5C 81.5318,52.6074 81.1984,54.9407 81.5,57.5C 76.0735,57.2175 70.7401,57.5509 65.5,58.5C 65.5,55.1667 65.5,51.8333 65.5,48.5C 71.266,47.196 76.9327,47.196 82.5,48.5 Z"/></g>
<g><path style="opacity:1" fill="#f73f68" d="M 82.5,50.5 C 82.5,55.8333 82.5,61.1667 82.5,66.5C 82.1667,66.5 81.8333,66.5 81.5,66.5C 76.5,66.5 71.5,66.5 66.5,66.5C 66.1667,66.5 65.8333,66.5 65.5,66.5C 65.5,63.8333 65.5,61.1667 65.5,58.5C 70.7401,57.5509 76.0735,57.2175 81.5,57.5C 81.1984,54.9407 81.5318,52.6074 82.5,50.5 Z"/></g>
<g><path style="opacity:1" fill="#460f19" d="M 82.5,48.5 C 82.8333,48.5 83.1667,48.5 83.5,48.5C 83.5,54.1667 83.5,59.8333 83.5,65.5C 88.8333,65.5 94.1667,65.5 99.5,65.5C 94.0247,66.4889 88.358,66.8222 82.5,66.5C 82.5,61.1667 82.5,55.8333 82.5,50.5C 82.5,49.8333 82.5,49.1667 82.5,48.5 Z"/></g>
<g><path style="opacity:1" fill="#fb4961" d="M 103.5,57.5 C 108.833,57.5 114.167,57.5 119.5,57.5C 119.665,60.8499 119.498,64.1832 119,67.5C 118.8,69.3197 117.966,70.653 116.5,71.5C 110.663,70.7043 104.663,70.0376 98.5,69.5C 95.5941,70.5283 92.7607,70.5283 90,69.5C 87.5092,70.2202 85.0092,70.8869 82.5,71.5C 82.5,69.8333 82.5,68.1667 82.5,66.5C 88.358,66.8222 94.0247,66.4889 99.5,65.5C 100.974,64.5637 101.974,63.2303 102.5,61.5C 103.434,60.4324 103.768,59.099 103.5,57.5 Z"/></g>
<g><path style="opacity:1" fill="#fa5159" d="M 65.5,66.5 C 65.5,68.5 65.5,70.5 65.5,72.5C 57.0177,73.6011 48.851,73.6011 41,72.5C 38.5644,73.3547 36.0644,74.0213 33.5,74.5C 35.8694,70.8051 39.2027,68.3051 43.5,67C 50.8258,66.5003 58.1591,66.3337 65.5,66.5 Z"/></g>
<g><path style="opacity:1" fill="#fd5855" d="M 116.5,71.5 C 115.557,74.1092 113.89,76.1092 111.5,77.5C 101.932,76.1835 92.2649,76.1835 82.5,77.5C 82.5,75.5 82.5,73.5 82.5,71.5C 85.0092,70.8869 87.5092,70.2202 90,69.5C 92.7607,70.5283 95.5941,70.5283 98.5,69.5C 104.663,70.0376 110.663,70.7043 116.5,71.5 Z"/></g>
<g><path style="opacity:1" fill="#f9604b" d="M 65.5,72.5 C 65.5,76.1667 65.5,79.8333 65.5,83.5C 59.8236,83.3339 54.1569,83.5006 48.5,84C 47.9558,84.7172 47.2891,85.2172 46.5,85.5C 41.2649,83.55 35.5982,82.8833 29.5,83.5C 29.8016,86.0593 29.4682,88.3926 28.5,90.5C 27.4383,84.1579 29.105,78.8246 33.5,74.5C 36.0644,74.0213 38.5644,73.3547 41,72.5C 48.851,73.6011 57.0177,73.6011 65.5,72.5 Z"/></g>
<g><path style="opacity:1" fill="#f36046" d="M 111.5,77.5 C 109.747,79.2225 107.747,80.7225 105.5,82C 97.8948,83.3115 90.2282,83.8115 82.5,83.5C 82.5,81.5 82.5,79.5 82.5,77.5C 92.2649,76.1835 101.932,76.1835 111.5,77.5 Z"/></g>
<g><path style="opacity:1" fill="#582017" d="M 65.5,66.5 C 65.8333,66.5 66.1667,66.5 66.5,66.5C 66.5,71.8333 66.5,77.1667 66.5,82.5C 71.5,82.5 76.5,82.5 81.5,82.5C 81.5,77.1667 81.5,71.8333 81.5,66.5C 81.8333,66.5 82.1667,66.5 82.5,66.5C 82.5,68.1667 82.5,69.8333 82.5,71.5C 82.5,73.5 82.5,75.5 82.5,77.5C 82.5,79.5 82.5,81.5 82.5,83.5C 76.8333,83.5 71.1667,83.5 65.5,83.5C 65.5,79.8333 65.5,76.1667 65.5,72.5C 65.5,70.5 65.5,68.5 65.5,66.5 Z"/></g>
<g><path style="opacity:1" fill="#000000" d="M 66.5,66.5 C 71.5,66.5 76.5,66.5 81.5,66.5C 81.5,71.8333 81.5,77.1667 81.5,82.5C 76.5,82.5 71.5,82.5 66.5,82.5C 66.5,77.1667 66.5,71.8333 66.5,66.5 Z"/></g>
<g><path style="opacity:1" fill="#030100" d="M 65.5,83.5 C 65.5,87.5 65.5,91.5 65.5,95.5C 65.8337,98.491 64.8337,100.824 62.5,102.5C 56.8333,102.5 51.1667,102.5 45.5,102.5C 45.5,97.5 45.5,92.5 45.5,87.5C 45.3284,86.5084 45.6618,85.8417 46.5,85.5C 47.2891,85.2172 47.9558,84.7172 48.5,84C 54.1569,83.5006 59.8236,83.3339 65.5,83.5 Z"/></g>
<g><path style="opacity:1" fill="#fd7838" d="M 46.5,85.5 C 45.6618,85.8417 45.3284,86.5084 45.5,87.5C 44.5318,89.6074 44.1984,91.9407 44.5,94.5C 40.2212,94.319 35.8879,93.9857 31.5,93.5C 30.4822,94.1925 29.4822,94.8592 28.5,95.5C 28.5,93.8333 28.5,92.1667 28.5,90.5C 29.4682,88.3926 29.8016,86.0593 29.5,83.5C 35.5982,82.8833 41.2649,83.55 46.5,85.5 Z"/></g>
<g><path style="opacity:1" fill="#fa7737" d="M 65.5,83.5 C 71.1667,83.5 76.8333,83.5 82.5,83.5C 82.8245,90.6866 82.4912,97.6866 81.5,104.5C 81.8204,101.102 81.487,97.7683 80.5,94.5C 76.194,93.6761 72.0274,93.3428 68,93.5C 67.2917,94.3805 66.4584,95.0472 65.5,95.5C 65.5,91.5 65.5,87.5 65.5,83.5 Z"/></g>
<g><path style="opacity:1" fill="#fc8928" d="M 44.5,94.5 C 44.5,97.5 44.5,100.5 44.5,103.5C 39.1667,103.5 33.8333,103.5 28.5,103.5C 28.5,100.833 28.5,98.1667 28.5,95.5C 29.4822,94.8592 30.4822,94.1925 31.5,93.5C 35.8879,93.9857 40.2212,94.319 44.5,94.5 Z"/></g>
<g><path style="opacity:1" fill="#fb921f" d="M 81.5,104.5 C 81.2503,106.674 80.2503,108.341 78.5,109.5C 78.3893,108.883 78.056,108.383 77.5,108C 75.5,107.833 73.5,107.667 71.5,107.5C 62.7894,107.544 54.1228,107.544 45.5,107.5C 45.5,106.167 45.5,104.833 45.5,103.5C 51.358,103.822 57.0247,103.489 62.5,102.5C 64.8337,100.824 65.8337,98.491 65.5,95.5C 66.4584,95.0472 67.2917,94.3805 68,93.5C 72.0274,93.3428 76.194,93.6761 80.5,94.5C 81.487,97.7683 81.8204,101.102 81.5,104.5 Z"/></g>
<g><path style="opacity:1" fill="#7b480d" d="M 45.5,87.5 C 45.5,92.5 45.5,97.5 45.5,102.5C 51.1667,102.5 56.8333,102.5 62.5,102.5C 57.0247,103.489 51.358,103.822 45.5,103.5C 45.5,104.833 45.5,106.167 45.5,107.5C 45.5,111.833 45.5,116.167 45.5,120.5C 44.5111,115.025 44.1778,109.358 44.5,103.5C 44.5,100.5 44.5,97.5 44.5,94.5C 44.1984,91.9407 44.5318,89.6074 45.5,87.5 Z"/></g>
<g><path style="opacity:1" fill="#fba60e" d="M 45.5,107.5 C 54.1228,107.544 62.7894,107.544 71.5,107.5C 73.5,107.667 75.5,107.833 77.5,108C 78.056,108.383 78.3893,108.883 78.5,109.5C 75.6148,115.867 70.6148,119.367 63.5,120C 57.5092,120.499 51.5092,120.666 45.5,120.5C 45.5,116.167 45.5,111.833 45.5,107.5 Z"/></g>
</svg>
