<svg width="114" height="114" viewBox="0 0 114 114" fill="none" xmlns="http://www.w3.org/2000/svg">
<g clip-path="url(#clip0_1157_59611)">
<path d="M112.219 57C112.219 26.5035 87.4965 1.78125 57 1.78125C26.5035 1.78125 1.78125 26.5035 1.78125 57C1.78125 87.4965 26.5035 112.219 57 112.219C87.4965 112.219 112.219 87.4965 112.219 57Z" stroke="#CED3E6" stroke-width="3.5625"/>
<g clip-path="url(#clip1_1157_59611)">
<mask id="mask0_1157_59611" style="mask-type:luminance" maskUnits="userSpaceOnUse" x="21" y="25" width="72" height="64">
<path d="M93 25H21V88.9252H93V25Z" fill="white"/>
</mask>
<g mask="url(#mask0_1157_59611)">
<path d="M77.6822 74.2934L68.213 53.2881C72.7523 52.4422 88.3819 46.0701 90.7175 32.218C91.0425 30.3976 89.8737 29.2921 88.0586 29.2921H78.0058C74.5042 29.2921 73.6607 25 69.1214 25H46.8767C39.6136 31.1775 35.4626 40.9321 35.4626 48.6066C35.4626 52.1838 36.3709 55.3693 38.3159 57.3856L37.1487 61.483C33.4518 60.7681 30.3386 60.4424 27.8748 60.4424C25.411 60.4424 21 60.7669 21 63.4333C21 67.8551 33.8413 77.4151 53.1021 83.5925C64.4515 87.2346 75.2173 88.9252 82.7404 88.9252C88.5124 88.9252 92.3392 87.8847 92.9226 86.1291C93.7664 83.4627 87.6044 78.976 77.6822 74.2934ZM38.6406 72.408L42.0127 59.5316C42.8563 59.7263 43.6988 59.8572 44.6718 59.8572C51.8702 59.8572 55.3082 53.2244 55.3082 45.6158C55.3082 39.698 53.168 33.2598 49.1476 28.9677H67.5659C71.198 28.9677 71.8463 32.8693 75.2184 32.8693H80.9261C80.2777 34.8855 81.5096 37.7466 84.2334 38.1371C82.7392 40.7698 80.2257 43.0063 77.3714 44.8163C74.6337 44.347 71.6961 43.457 69.9002 41.5184C68.8625 40.348 67.5012 40.9981 67.5012 42.6238C67.5012 44.551 68.7538 46.6367 70.6375 48.1663C67.3198 49.4468 64.2111 50.171 62.2477 50.2973L76.3856 83.333C67.047 83.5925 47.2662 77.8056 38.6406 72.408Z" fill="white"/>
<path d="M65.7473 37.0963C65.1638 36.2504 65.6179 35.3408 66.2662 35.08C67.0439 34.8853 67.9522 35.0151 68.017 36.1855L70.8702 35.1449C70.2866 31.8934 67.6922 30.723 64.9037 31.6987C62.5693 32.6095 61.1422 35.1449 62.8929 38.072L65.7462 37.0963H65.7473Z" fill="white"/>
</g>
</g>
</g>
<defs>
<clipPath id="clip0_1157_59611">
<rect width="114" height="114" fill="white"/>
</clipPath>
<clipPath id="clip1_1157_59611">
<rect width="72" height="63.9252" fill="white" transform="translate(21 25)"/>
</clipPath>
</defs>
</svg>
