<?xml version="1.0" standalone="no"?>
<!DOCTYPE svg PUBLIC "-//W3C//DTD SVG 20010904//EN"
 "http://www.w3.org/TR/2001/REC-SVG-20010904/DTD/svg10.dtd">
<svg version="1.0" xmlns="http://www.w3.org/2000/svg"
 width="455.000000pt" height="469.000000pt" viewBox="0 0 455.000000 469.000000"
 preserveAspectRatio="xMidYMid meet">

<g transform="translate(0.000000,469.000000) scale(0.100000,-0.100000)"
fill="#000000" stroke="none">
<path d="M2745 3642 c-247 -145 -454 -265 -460 -265 -5 0 -205 111 -442 247
-238 135 -439 249 -448 252 -13 5 -15 -54 -17 -511 l-3 -518 -458 -260 c-388
-220 -456 -262 -440 -271 10 -6 211 -117 448 -247 l430 -236 -2 -34 c-18 -285
-55 -1070 -51 -1074 3 -3 191 104 419 238 228 134 442 259 476 279 l61 36 469
-267 468 -268 5 541 5 541 478 271 c262 149 480 274 483 276 3 3 -214 117
-483 253 -268 135 -492 250 -497 255 -6 6 -5 211 2 517 6 279 10 508 9 509 -1
1 -204 -118 -452 -264z m816 -1041 l451 -229 -28 -16 c-16 -10 -213 -122 -439
-249 l-410 -233 -6 -492 c-4 -271 -9 -495 -12 -498 -3 -4 -196 102 -428 235
-232 133 -426 241 -433 241 -6 0 -206 -115 -444 -255 l-433 -254 6 122 c4 67
17 297 29 511 l21 390 825 477 c454 263 831 478 837 478 7 1 216 -102 464
-228z"/>
</g>
</svg>
