<svg width="346" height="347" viewBox="0 0 346 347" fill="none" xmlns="http://www.w3.org/2000/svg">
<g clip-path="url(#clip0_13670_377)">
<path d="M173 346.728C268.545 346.728 346 269.273 346 173.728C346 78.1828 268.545 0.728027 173 0.728027C77.4547 0.728027 0 78.1828 0 173.728C0 269.273 77.4547 346.728 173 346.728Z" fill="url(#paint0_radial_13670_377)"/>
<path d="M106.836 219.208H82.2168C84.2265 257.645 116.382 291.057 173.409 291.057C230.184 291.057 266.359 259.906 266.359 219.711C266.359 143.341 151.05 147.612 151.05 103.397C151.05 91.0878 160.345 76.5172 181.95 76.5172C206.067 76.5172 234.454 95.3585 236.464 119.475H260.832C258.32 80.5367 220.386 53.4053 172.152 53.4053C122.16 53.4053 84.4777 82.5464 84.4777 123.746C84.4777 202.377 199.786 192.077 199.786 240.562C199.786 255.635 190.491 268.196 167.128 268.196C137.987 268.196 108.595 247.847 106.836 219.208ZM127.436 109.175C127.436 168.965 241.74 157.158 241.74 220.967C241.74 240.059 229.179 256.891 214.106 261.162C219.381 256.137 223.401 245.084 223.401 234.533C223.401 175.497 108.846 183.536 108.846 122.992C108.846 102.644 121.909 86.3147 138.238 81.2904C131.958 88.8269 127.436 98.6243 127.436 109.175Z" fill="white"/>
</g>
<defs>
<radialGradient id="paint0_radial_13670_377" cx="0" cy="0" r="1" gradientUnits="userSpaceOnUse" gradientTransform="translate(173 539.624) rotate(-90) scale(538.897)">
<stop stop-color="#FFEF79"/>
<stop offset="1" stop-color="#00C2A1"/>
</radialGradient>
<clipPath id="clip0_13670_377">
<rect width="346" height="347" fill="white"/>
</clipPath>
</defs>
</svg>
