<svg width="57" height="57" xmlns="http://www.w3.org/2000/svg" xmlns:xlink="http://www.w3.org/1999/xlink" xml:space="preserve" overflow="hidden"><g transform="translate(-384 -104)"><g><path d="M441 132.5C441 148.24 428.24 161 412.5 161 396.76 161 384 148.24 384 132.5 384 116.76 396.76 104 412.5 104 428.24 104 441 116.76 441 132.5Z" fill="#FFFFFF" fill-rule="nonzero" fill-opacity="1"/><path d="M439.778 132.486C439.778 147.481 427.566 159.637 412.501 159.637 397.437 159.637 385.225 147.481 385.225 132.486 385.225 117.492 397.437 105.336 412.501 105.336 427.566 105.336 439.778 117.492 439.778 132.486ZM411.241 107.613C410.339 108.022 409.655 109.256 408.288 111.724L407.59 112.986C406.931 114.176 406.601 114.771 406.117 115.147 405.691 115.478 405.182 115.688 404.644 115.754 404.036 115.829 403.38 115.64 402.068 115.262L400.678 114.862C397.958 114.078 396.598 113.687 395.669 114.033 394.86 114.335 394.221 114.971 393.918 115.776 393.57 116.701 393.964 118.054 394.751 120.762L395.153 122.145C395.532 123.451 395.722 124.104 395.647 124.71 395.58 125.244 395.369 125.751 395.037 126.176 394.659 126.657 394.061 126.985 392.866 127.641L391.598 128.337C389.118 129.697 387.878 130.378 387.468 131.276 387.11 132.059 387.11 132.958 387.468 133.741 387.878 134.64 389.118 135.32 391.598 136.681L392.866 137.376C394.061 138.032 394.659 138.36 395.037 138.842 395.369 139.267 395.58 139.773 395.647 140.308 395.722 140.914 395.532 141.567 395.153 142.872L394.751 144.256C393.964 146.963 393.57 148.317 393.918 149.241 394.221 150.047 394.86 150.683 395.669 150.984 396.598 151.331 397.958 150.939 400.678 150.156L402.068 149.756C403.38 149.378 404.036 149.189 404.644 149.264 405.182 149.33 405.691 149.54 406.117 149.871 406.601 150.247 406.931 150.842 407.59 152.032L408.288 153.293C409.655 155.762 410.339 156.996 411.241 157.405 412.028 157.761 412.931 157.761 413.718 157.405 414.621 156.996 415.304 155.762 416.671 153.293L417.37 152.032C418.029 150.842 418.358 150.247 418.842 149.871 419.269 149.54 419.778 149.33 420.315 149.264 420.924 149.189 421.58 149.378 422.891 149.756L424.281 150.156C427.001 150.939 428.361 151.331 429.29 150.984 430.099 150.683 430.738 150.047 431.041 149.241 431.389 148.317 430.996 146.963 430.209 144.256L429.807 142.872C429.427 141.567 429.238 140.914 429.313 140.308 429.379 139.773 429.59 139.267 429.923 138.842 430.3 138.36 430.898 138.032 432.094 137.376L433.361 136.681C435.841 135.32 437.081 134.64 437.491 133.741 437.849 132.958 437.849 132.059 437.491 131.276 437.081 130.378 435.841 129.697 433.361 128.337L432.094 127.641C430.898 126.985 430.3 126.657 429.923 126.176 429.59 125.751 429.379 125.244 429.313 124.71 429.238 124.104 429.427 123.451 429.807 122.145L430.209 120.762C430.996 118.054 431.389 116.701 431.041 115.776 430.738 114.971 430.099 114.335 429.29 114.033 428.361 113.687 427.001 114.078 424.281 114.862L422.891 115.262C421.58 115.64 420.924 115.829 420.315 115.754 419.778 115.688 419.269 115.478 418.842 115.147 418.358 114.771 418.029 114.176 417.37 112.986L416.671 111.724C416.586 111.57 416.503 111.42 416.423 111.276 415.218 109.105 414.564 107.996 413.718 107.613 412.931 107.257 412.028 107.257 411.241 107.613Z" fill="#000000" fill-rule="evenodd" fill-opacity="1"/><path d="M412.544 110.566C412.903 111.094 413.339 111.876 414.051 113.161L414.789 114.494C415.085 115.027 415.378 115.558 415.665 115.996 415.984 116.484 416.398 117.025 417.002 117.494 417.856 118.157 418.874 118.577 419.948 118.709 420.708 118.802 421.386 118.711 421.959 118.591 422.472 118.483 423.056 118.314 423.644 118.145L425.113 117.722C426.53 117.314 427.394 117.068 428.023 116.948 428.063 116.94 428.099 116.933 428.134 116.927 428.128 116.961 428.121 116.998 428.113 117.038 427.992 117.664 427.745 118.524 427.335 119.935L426.911 121.396 426.911 121.396 426.879 121.506C426.719 122.054 426.564 122.595 426.463 123.074 426.342 123.644 426.25 124.318 426.344 125.075 426.477 126.144 426.898 127.158 427.564 128.007 428.035 128.608 428.579 129.021 429.07 129.339 429.509 129.624 430.042 129.916 430.578 130.21L431.917 130.944C433.209 131.653 433.994 132.088 434.525 132.445 434.558 132.468 434.589 132.489 434.618 132.509 434.611 132.513 434.605 132.518 434.599 132.522 434.587 132.53 434.576 132.538 434.564 132.546L434.553 132.553 434.553 132.553 434.545 132.559 434.535 132.566 434.525 132.572C433.994 132.93 433.209 133.364 431.917 134.073L430.578 134.808C430.042 135.102 429.509 135.394 429.07 135.679 428.579 135.997 428.035 136.409 427.564 137.011 426.898 137.86 426.477 138.873 426.344 139.943 426.25 140.699 426.342 141.374 426.463 141.944 426.571 142.455 426.74 143.037 426.911 143.622L427.335 145.083C427.745 146.494 427.992 147.354 428.113 147.98 428.121 148.019 428.128 148.056 428.134 148.09 428.099 148.084 428.063 148.078 428.023 148.07 427.394 147.949 426.53 147.704 425.113 147.296L423.644 146.873C423.056 146.704 422.472 146.535 421.959 146.427 421.386 146.306 420.708 146.216 419.948 146.309 418.874 146.441 417.856 146.861 417.002 147.524 416.398 147.993 415.984 148.533 415.665 149.022 415.379 149.46 415.085 149.99 414.789 150.524L414.051 151.856C413.339 153.142 412.903 153.924 412.544 154.452 412.521 154.485 412.5 154.516 412.48 154.544 412.47 154.53 412.459 154.515 412.449 154.5 412.438 154.485 412.427 154.469 412.416 154.452 412.056 153.924 411.62 153.142 410.908 151.856L410.17 150.524C409.875 149.99 409.581 149.46 409.295 149.022 408.975 148.533 408.561 147.993 407.957 147.524 407.104 146.861 406.086 146.441 405.011 146.309 404.251 146.216 403.574 146.306 403.001 146.427 402.488 146.535 401.903 146.703 401.315 146.873L401.315 146.873 399.847 147.296C398.43 147.704 397.566 147.949 396.937 148.07 396.897 148.078 396.86 148.084 396.826 148.09 396.832 148.056 396.838 148.019 396.846 147.98 396.967 147.354 397.214 146.494 397.624 145.083L398.049 143.622C398.219 143.037 398.388 142.455 398.497 141.944 398.618 141.374 398.709 140.699 398.615 139.943 398.483 138.873 398.061 137.86 397.395 137.011 396.924 136.409 396.38 135.997 395.89 135.679 395.45 135.394 394.917 135.102 394.381 134.808L393.042 134.073C391.751 133.364 390.965 132.93 390.434 132.572 390.401 132.55 390.37 132.529 390.342 132.509 390.37 132.489 390.401 132.468 390.434 132.445 390.965 132.088 391.751 131.653 393.042 130.944L394.381 130.21C394.917 129.916 395.45 129.624 395.89 129.339 396.38 129.021 396.924 128.608 397.395 128.007 398.061 127.158 398.483 126.144 398.615 125.075 398.709 124.318 398.618 123.644 398.497 123.074 398.388 122.563 398.219 121.981 398.049 121.396L398.026 121.318 397.624 119.935C397.214 118.524 396.967 117.664 396.846 117.038 396.838 116.998 396.832 116.961 396.826 116.927 396.86 116.933 396.897 116.94 396.937 116.948 397.566 117.068 398.43 117.314 399.847 117.722L401.237 118.122 401.315 118.145C401.903 118.314 402.488 118.483 403.001 118.591 403.574 118.711 404.251 118.802 405.011 118.709 406.086 118.577 407.104 118.157 407.957 117.494 408.561 117.025 408.975 116.484 409.295 115.996 409.581 115.558 409.875 115.027 410.17 114.494L410.908 113.161C411.62 111.876 412.056 111.094 412.416 110.566 412.438 110.532 412.46 110.502 412.48 110.473 412.5 110.502 412.521 110.532 412.544 110.566ZM405.331 120.135C400.923 122.668 398.207 127.35 398.207 132.417 398.207 137.483 400.923 142.165 405.331 144.698 409.739 147.232 415.17 147.232 419.579 144.698 423.987 142.165 426.703 137.483 426.703 132.417 426.703 127.35 423.987 122.668 419.579 120.135 415.17 117.601 409.739 117.601 405.331 120.135Z" fill="#000000" fill-rule="evenodd" fill-opacity="1"/><path d="M416.4 130.446C416.802 130.35 417.241 130.298 417.691 130.298 418.141 130.298 418.581 130.35 418.982 130.446 419.385 130.543 419.726 130.679 419.992 130.833 420.316 131.02 420.756 131.089 421.061 130.872L421.422 130.616C421.926 130.259 422.044 129.549 421.547 129.181 421.411 129.081 421.268 128.988 421.12 128.902 420.638 128.624 420.089 128.415 419.508 128.275 418.925 128.136 418.309 128.065 417.691 128.065 417.074 128.065 416.457 128.136 415.875 128.275 415.293 128.415 414.744 128.624 414.262 128.902 413.783 129.18 413.358 129.534 413.047 129.969 412.909 130.162 412.862 130.359 412.853 130.401L412.852 130.405C412.834 130.481 412.823 130.553 412.815 130.608 412.801 130.72 412.791 130.848 412.784 130.978 412.769 131.242 412.76 131.587 412.755 131.977 412.746 132.76 412.752 133.773 412.764 134.778 412.777 135.785 412.796 136.792 412.811 137.564 412.817 137.877 412.823 138.152 412.828 138.373L412.831 138.519C412.833 138.639 412.835 138.737 412.837 138.809L412.838 138.857 412.838 138.875 412.838 138.895C412.838 138.901 412.839 138.906 412.839 138.911L412.839 138.918 412.839 138.925 412.839 138.926 412.839 138.926 412.839 138.926 414.477 138.926C414.811 138.926 415.078 138.656 415.071 138.324L415.071 138.323C415.054 137.54 415.025 136.123 415.008 134.751 414.995 133.75 414.989 132.759 414.998 132.004 415 131.838 415.003 131.685 415.007 131.548 415.014 131.259 415.138 130.978 415.39 130.833 415.656 130.679 415.997 130.543 416.4 130.446Z" fill="#000000" fill-rule="nonzero" fill-opacity="1"/><path d="M405.772 130.729C406.154 130.638 406.574 130.589 407.005 130.589 407.436 130.589 407.856 130.638 408.238 130.729 408.784 130.858 409.411 130.693 409.691 130.209L409.743 130.118C410.052 129.583 409.866 128.893 409.277 128.702 409.108 128.647 408.935 128.598 408.758 128.556 408.197 128.423 407.602 128.356 407.005 128.356 406.408 128.356 405.813 128.423 405.252 128.556 404.692 128.689 404.166 128.887 403.707 129.15 403.589 129.217 403.475 129.289 403.366 129.366 402.86 129.721 402.971 130.432 403.474 130.792L403.918 131.111C404.176 131.295 404.551 131.243 404.825 131.086 405.069 130.946 405.388 130.82 405.772 130.729Z" fill="#000000" fill-rule="nonzero" fill-opacity="1"/></g></g></svg>