<svg width="58" height="56" xmlns="http://www.w3.org/2000/svg" xmlns:xlink="http://www.w3.org/1999/xlink" xml:space="preserve" overflow="hidden"><defs><clipPath id="clip0"><rect x="490" y="12" width="58" height="56"/></clipPath><clipPath id="clip1"><rect x="490" y="12" width="58" height="56"/></clipPath><clipPath id="clip2"><path d="M491 40C491 24.536 503.536 12 519 12 534.464 12 547 24.536 547 40 547 55.464 534.464 68 519 68 503.536 68 491 55.464 491 40Z" fill-rule="evenodd" clip-rule="evenodd"/></clipPath><clipPath id="clip3"><rect x="491" y="11" width="56" height="57"/></clipPath><clipPath id="clip4"><rect x="491" y="11" width="56" height="57"/></clipPath></defs><g clip-path="url(#clip0)" transform="translate(-490 -12)"><g clip-path="url(#clip1)"><g clip-path="url(#clip2)"><g clip-path="url(#clip3)"><g clip-path="url(#clip4)"><path d="M490.813 11.8133C509.48 11.8133 528.147 11.8133 546.813 11.8133 546.813 30.48 546.813 49.1467 546.813 67.8133 528.147 67.8133 509.48 67.8133 490.813 67.8133 490.813 49.1467 490.813 30.48 490.813 11.8133Z" fill="#12146E" fill-rule="evenodd" fill-opacity="1"/><path d="M515.827 16.6667C526.22 16.1825 532.753 20.9114 535.427 30.8533 536.387 38.9511 533.338 44.9867 526.28 48.96 525.543 50.9435 525.357 52.9969 525.72 55.12 526.213 56.5394 526.649 57.9704 527.027 59.4133 527.107 61.174 526.36 62.4183 524.787 63.1467 521.578 63.9098 519.836 62.6654 519.56 59.4133 519.793 58.0902 520.104 56.7836 520.493 55.4933 520.537 52.1109 520.786 48.7509 521.24 45.4133 523.436 44.0638 525.428 42.4461 527.213 40.56 530.391 35.1997 529.831 30.2841 525.533 25.8133 518.386 21.4867 512.724 22.9178 508.547 30.1067 506.789 36.6701 508.967 41.3368 515.08 44.1067 516.643 46.4763 516.954 49.0274 516.013 51.76 514.851 52.9633 513.545 53.1499 512.093 52.32 511.48 51.2799 510.92 50.2222 510.413 49.1467 502.231 43.8453 499.617 36.503 502.573 27.12 505.32 21.4413 509.738 17.9569 515.827 16.6667Z" fill="#F9F9FA" fill-rule="evenodd" fill-opacity="1"/><path d="M513.587 29.36C517.043 32.1935 520.279 35.3046 523.293 38.6933 520.634 40.7623 517.771 41.0735 514.707 39.6267 511.228 36.5002 510.854 33.078 513.587 29.36Z" fill="#F5F5F7" fill-rule="evenodd" fill-opacity="0.999"/></g></g></g></g></g></svg>