<?xml version="1.0" encoding="UTF-8"?>
<!DOCTYPE svg PUBLIC "-//W3C//DTD SVG 1.1//EN" "http://www.w3.org/Graphics/SVG/1.1/DTD/svg11.dtd">
<svg xmlns="http://www.w3.org/2000/svg" version="1.1" width="150px" height="150px" style="shape-rendering:geometricPrecision; text-rendering:geometricPrecision; image-rendering:optimizeQuality; fill-rule:evenodd; clip-rule:evenodd" xmlns:xlink="http://www.w3.org/1999/xlink">
<g><path style="opacity:1" fill="#12146e" d="M -0.5,-0.5 C 49.5,-0.5 99.5,-0.5 149.5,-0.5C 149.5,49.5 149.5,99.5 149.5,149.5C 99.5,149.5 49.5,149.5 -0.5,149.5C -0.5,99.5 -0.5,49.5 -0.5,-0.5 Z"/></g>
<g><path style="opacity:1" fill="#f9f9fa" d="M 66.5,12.5 C 94.3384,11.2032 111.838,23.8699 119,50.5C 121.572,72.1905 113.405,88.3572 94.5,99C 92.5265,104.313 92.0265,109.813 93,115.5C 94.3205,119.302 95.4872,123.135 96.5,127C 96.7146,131.716 94.7146,135.049 90.5,137C 81.9062,139.044 77.2395,135.711 76.5,127C 77.1252,123.456 77.9585,119.956 79,116.5C 79.118,107.44 79.7846,98.4399 81,89.5C 86.8834,85.8853 92.2167,81.552 97,76.5C 105.512,62.142 104.012,48.9753 92.5,37C 73.356,25.4108 58.1894,29.2441 47,48.5C 42.2915,66.0806 48.1248,78.5806 64.5,86C 68.6875,92.3472 69.5209,99.1806 67,106.5C 63.8877,109.723 60.3877,110.223 56.5,108C 54.8578,105.214 53.3578,102.381 52,99.5C 30.0819,85.2998 23.0819,65.6331 31,40.5C 38.3585,25.2893 50.1918,15.956 66.5,12.5 Z"/></g>
<g><path style="opacity:0.999" fill="#f5f5f7" d="M 60.5,46.5 C 69.7589,54.0897 78.4255,62.4231 86.5,71.5C 79.3761,77.042 71.7094,77.8754 63.5,74C 54.1817,65.6256 53.1817,56.459 60.5,46.5 Z"/></g>
</svg>
