<svg width="59" height="59" xmlns="http://www.w3.org/2000/svg" xmlns:xlink="http://www.w3.org/1999/xlink" xml:space="preserve" overflow="hidden"><defs><clipPath id="clip0"><path d="M234 522.5C234 506.76 246.76 494 262.5 494 278.24 494 291 506.76 291 522.5 291 538.24 278.24 551 262.5 551 246.76 551 234 538.24 234 522.5Z" fill-rule="evenodd" clip-rule="evenodd"/></clipPath></defs><g transform="translate(-233 -493)"><g><g clip-path="url(#clip0)"><g><g><path d="M234 494 291 494 291 551 234 551Z" fill="#10101E" fill-rule="nonzero" fill-opacity="1"/><path d="M240.829 523.304 284.129 523.304 284.129 527.009 240.829 527.009Z" fill="#FFFFFF" fill-rule="nonzero" fill-opacity="1"/><path d="M283.67 530.067C283.67 530.067 257.37 530.072 256.649 530.072 256.335 530.072 256.347 531.244 256.341 531.366 256.307 532.156 256.287 532.045 256.224 532.335 256.164 532.626 255.617 533.96 254.169 533.96 252.722 533.96 252.397 532.637 252.306 532.355 252.214 532.073 252.214 531.717 252.174 531.42 252.137 531.147 252.015 530.739 251.761 530.486 251.701 530.42 251.63 530.363 251.556 530.315 251.519 530.286 251.482 530.263 251.439 530.243 251.394 530.215 251.345 530.192 251.299 530.178 251.262 530.158 251.225 530.147 251.188 530.135 251.157 530.121 251.117 530.112 251.08 530.107 251.072 530.101 251.057 530.098 251.043 530.098 251 530.09 250.96 530.084 250.912 530.078 250.892 530.075 250.872 530.075 250.852 530.075L250.881 530.075C250.855 530.072 250.829 530.072 250.806 530.072 250.795 530.072 250.784 530.07 250.772 530.07 250.764 530.07 250.755 530.072 250.744 530.072 250.715 530.072 250.687 530.072 250.658 530.075L250.69 530.075C250.67 530.075 250.647 530.075 250.627 530.078 250.596 530.078 250.561 530.084 250.53 530.092 250.493 530.098 250.459 530.107 250.427 530.115 250.311 530.144 250.205 530.184 250.105 530.241 250.074 530.261 250.04 530.278 250.008 530.3 249.98 530.315 249.957 530.332 249.934 530.352 249.903 530.375 249.869 530.403 249.84 530.432 249.775 530.489 249.715 530.554 249.658 530.622 249.638 530.654 249.615 530.688 249.592 530.725 249.57 530.756 249.547 530.799 249.527 530.836 249.49 530.91 249.456 530.996 249.43 531.078 249.421 531.121 249.407 531.161 249.401 531.204 249.396 531.218 249.393 531.235 249.393 531.25 249.379 531.324 249.373 531.398 249.373 531.472L249.373 532.771C249.373 534.168 248.156 535.297 246.742 535.151 245.508 535.026 244.605 533.903 244.605 532.655L244.605 530.617C244.605 530.546 244.591 530.483 244.568 530.42 244.559 530.392 244.545 530.369 244.536 530.346 244.499 530.281 244.448 530.224 244.391 530.184 244.371 530.169 244.354 530.155 244.331 530.141 244.323 530.135 244.308 530.127 244.3 530.121 244.277 530.112 244.257 530.104 244.234 530.098 244.229 530.092 244.226 530.092 244.22 530.092 244.192 530.084 244.169 530.072 244.14 530.072 244.135 530.067 244.135 530.067 244.132 530.067 244.109 530.061 244.08 530.061 244.058 530.061L241.282 530.061C240.98 530.061 240.737 530.309 240.737 530.611L240.737 533.37C240.737 536.673 243.402 539.363 246.694 539.363L278.26 539.363C281.555 539.363 284.217 536.67 284.217 533.37L284.217 530.611C284.22 530.315 283.972 530.067 283.67 530.067Z" fill="#FFFFFF" fill-rule="nonzero" fill-opacity="1"/><path d="M284.359 518.741C284.359 519.547 283.676 520.206 282.832 520.206L242.168 520.206C241.327 520.206 240.641 519.553 240.641 518.749 240.641 509.21 250.447 501.45 262.503 501.45 267.998 501.45 273.567 503.399 277.785 506.799 281.963 510.165 284.359 514.52 284.359 518.741Z" fill="#FFFFFF" fill-rule="nonzero" fill-opacity="1"/></g></g></g></g></g></svg>