<svg width="391" height="391" viewBox="0 0 391 391" fill="none" xmlns="http://www.w3.org/2000/svg">
<g clip-path="url(#clip0_1196_59606)">
<path d="M195.1 3.5C300.9 3.5 386.7 89.3 386.7 195.1C386.7 300.9 300.9 386.7 195.1 386.7C89.3 386.7 3.5 300.9 3.5 195.1C3.5 89.3 89.3 3.5 195.1 3.5Z" fill="#111111" stroke="#111111" stroke-width="7.0571"/>
<path d="M195.1 0C87.3 0 0 87.3 0 195.1C0 302.8 87.3 390.2 195.1 390.2C302.8 390.2 390.2 302.9 390.2 195.1C390.2 87.3 302.8 0 195.1 0Z" fill="url(#paint0_radial_1196_59606)" fill-opacity="0.7"/>
<path fill-rule="evenodd" clip-rule="evenodd" d="M152.4 104.4H148.2L145.5 107.6L76 189.3L71 195.1L76 200.9L145.6 282.6L148.3 285.8H152.5H277.8H286.8V276.8V224.8H268.8V267.8H172.2L230 201L235.1 195.1L230 189.2L172.2 122.4H268.8V165.4H286.8V113.4V104.4H277.8H152.4ZM152.5 127.2L94.7 195.1L152.5 263L211.2 195.1L152.5 127.2Z" fill="white"/>
</g>
<rect x="2.5" y="2.5" width="385.2" height="385.2" rx="192.6" stroke="white" stroke-width="5"/>
<defs>
<radialGradient id="paint0_radial_1196_59606" cx="0" cy="0" r="1" gradientUnits="userSpaceOnUse" gradientTransform="translate(195.537 56.9606) rotate(90) scale(411.352 289.55)">
<stop offset="0.03125" stop-color="#3A3A3A"/>
<stop offset="1" stop-color="#1C1C1C"/>
</radialGradient>
<clipPath id="clip0_1196_59606">
<rect width="390.2" height="390.2" rx="195.1" fill="white"/>
</clipPath>
</defs>
</svg>
