<svg width="108" height="108" viewBox="0 0 108 108" fill="none" xmlns="http://www.w3.org/2000/svg">
<rect width="108" height="108" rx="54" fill="black"/>
<path fill-rule="evenodd" clip-rule="evenodd" d="M46.0632 62.9604C45.1998 62.3184 44.1575 61.7805 43.0051 61.4538C41.8527 61.1271 40.5899 61.0116 39.3552 61.1485C38.1205 61.2855 36.9138 61.6749 35.861 62.2463C34.8082 62.8176 33.9092 63.5709 33.2074 64.3865C32.5036 65.2004 31.8905 66.2002 31.4799 67.3255C31.0693 68.4506 30.8611 69.7015 30.9068 70.9429C30.9526 72.1844 31.2522 73.4164 31.7445 74.5084C32.2369 75.6005 32.9219 76.5524 33.6836 77.3124C34.4436 78.074 35.3955 78.7591 36.4875 79.2515C37.5795 79.7437 38.8116 80.0433 40.053 80.0892C41.2945 80.1349 42.5453 79.9267 43.6706 79.516C44.7959 79.1055 45.7956 78.4923 46.6095 77.7886C47.4251 77.0867 48.1784 76.1878 48.7498 75.1351C49.321 74.0822 49.7106 72.8754 49.8475 71.6407C49.9845 70.406 49.869 69.1433 49.5421 67.9909C49.2154 66.8384 48.6777 65.7962 48.0356 64.9328L50.1561 62.8124L51.6995 64.3558H52.5761L53.6341 63.2978V62.4212L52.0907 60.8777L54.3315 58.6369L56.5722 60.8777L55.0288 62.4212V63.2978L56.0868 64.3558H56.9635L58.5069 62.8124L60.6273 64.9328C59.9854 65.7962 59.4475 66.8384 59.1208 67.9909C58.7941 69.1433 58.6785 70.406 58.8154 71.6407C58.9524 72.8754 59.3419 74.0822 59.9133 75.1351C60.4846 76.1878 61.2378 77.0867 62.0534 77.7886C62.8673 78.4923 63.8671 79.1055 64.9924 79.516C66.1177 79.9267 67.3685 80.1349 68.61 80.0892C69.8513 80.0433 71.0833 79.7437 72.1755 79.2515C73.2674 78.7591 74.2193 78.074 74.9793 77.3124C75.7411 76.5524 76.426 75.6005 76.9184 74.5084C77.4108 73.4164 77.7104 72.1844 77.7561 70.9429C77.8018 69.7015 77.5937 68.4506 77.1831 67.3255C76.7724 66.2002 76.1592 65.2004 75.4555 64.3865C74.7538 63.5709 73.8548 62.8176 72.802 62.2463C71.7491 61.6749 70.5425 61.2855 69.3078 61.1485C68.0731 61.0116 66.8103 61.1271 65.6578 61.4538C64.5054 61.7805 63.4631 62.3184 62.5997 62.9604L60.5187 60.8759L62.0613 59.3333V58.4567L60.9655 57.3609H60.0889L58.5455 58.9045L56.304 56.6645L68.0558 44.9127L72.8129 49.6698V44.7201H77.7625L73.0054 39.963L77.7625 35.2058V34.3292L76.6668 33.2334H75.7901L54.3315 54.6921L32.8728 33.2334H31.9962L30.9004 34.3292V35.2058L35.6575 39.963L30.9004 44.7201H35.8501V49.6698L40.6072 44.9127L52.3591 56.6645L50.1174 58.9045L48.574 57.3609H47.6974L46.6016 58.4567V59.3333L48.1442 60.8759L46.0632 62.9604ZM65.1333 73.8466C64.6495 74.8392 64.75 76.2147 65.373 77.1263C65.9454 78.0706 67.1562 78.7309 68.26 78.7009C69.3639 78.7309 70.5746 78.0706 71.147 77.1263C71.7701 76.2147 71.8705 74.8392 71.3866 73.8466L71.5072 73.7167C72.4997 74.2033 73.8773 74.1048 74.7904 73.4819C75.7362 72.91 76.398 71.698 76.3678 70.5929C76.398 69.4881 75.7362 68.276 74.7904 67.7041C73.8773 67.0813 72.4997 66.9827 71.5072 67.4692L71.3866 67.3395C71.8705 66.3468 71.7701 64.9714 71.147 64.0598C70.5746 63.1155 69.3639 62.4551 68.26 62.4852C67.1562 62.4551 65.9454 63.1155 65.373 64.0598C64.75 64.9714 64.6495 66.3468 65.1333 67.3395L65.0128 67.4692C64.0203 66.9827 62.6428 67.0813 61.7297 67.7041C60.7839 68.276 60.1219 69.4881 60.1522 70.5929C60.1219 71.698 60.7839 72.91 61.7297 73.4819C62.6428 74.1048 64.0203 74.2033 65.0128 73.7167L65.1333 73.8466ZM43.2895 77.1263C43.9125 76.2147 44.013 74.8392 43.5291 73.8466L43.6497 73.7167C44.6421 74.2033 46.0197 74.1048 46.9328 73.4819C47.8787 72.91 48.5405 71.698 48.5103 70.5929C48.5405 69.4881 47.8787 68.276 46.9328 67.7041C46.0197 67.0813 44.6421 66.9827 43.6497 67.4692L43.5291 67.3395C44.013 66.3468 43.9125 64.9714 43.2895 64.0598C42.7171 63.1155 41.5063 62.4551 40.4025 62.4852C39.2986 62.4551 38.0879 63.1155 37.5154 64.0598C36.8924 64.9714 36.7919 66.3468 37.2758 67.3395L37.1553 67.4692C36.1628 66.9827 34.7853 67.0813 33.8721 67.7041C32.9263 68.276 32.2644 69.4881 32.2947 70.5929C32.2644 71.698 32.9263 72.91 33.8721 73.4819C34.7853 74.1048 36.1628 74.2033 37.1553 73.7167L37.2758 73.8466C36.7919 74.8392 36.8924 76.2147 37.5154 77.1263C38.0879 78.0706 39.2986 78.7309 40.4025 78.7009C41.5063 78.7309 42.7171 78.0706 43.2895 77.1263Z" fill="#DD3300"/>
<path fill-rule="evenodd" clip-rule="evenodd" d="M54.315 33.2326L59.9479 27.5996L62.7374 30.389V39.7916L55.0123 47.5168H53.6175L45.8926 39.7916V30.389L48.6819 27.5996L54.315 33.2326ZM48.6819 29.572L53.6177 34.5077V43.5719L48.6819 38.6363V29.572ZM55.0126 34.5077L59.9483 29.572V38.6363L55.0126 43.5719V34.5077Z" fill="#DD3300"/>
</svg>
